<svg width="10" height="7" viewBox="0 0 10 7" fill="none" xmlns="http://www.w3.org/2000/svg">
<path d="M3.43125 5.13125L7.85625 0.70625C7.99375 0.56875 8.16875 0.5 8.38125 0.5C8.59375 0.5 8.76875 0.56875 8.90625 0.70625C9.04375 0.84375 9.1125 1.01875 9.1125 1.23125C9.1125 1.44375 9.04375 1.61875 8.90625 1.75625L3.95625 6.70625C3.80625 6.85625 3.63125 6.93125 3.43125 6.93125C3.23125 6.93125 3.05625 6.85625 2.90625 6.70625L0.95625 4.75625C0.81875 4.61875 0.75 4.44375 0.75 4.23125C0.75 4.01875 0.81875 3.84375 0.95625 3.70625C1.09375 3.56875 1.26875 3.5 1.48125 3.5C1.69375 3.5 1.86875 3.56875 2.00625 3.70625L3.43125 5.13125Z" fill="white"/>
</svg>
