<svg width="7" height="6" viewBox="0 0 7 6" fill="none" xmlns="http://www.w3.org/2000/svg">
<path d="M2.15742 4.28522L5.64378 0.798852C5.75212 0.690519 5.89 0.636353 6.05742 0.636353C6.22485 0.636353 6.36272 0.690519 6.47106 0.798852C6.57939 0.907186 6.63356 1.04506 6.63356 1.21249C6.63356 1.37991 6.57939 1.51779 6.47106 1.62613L2.57106 5.52612C2.45288 5.64431 2.315 5.7034 2.15742 5.7034C1.99985 5.7034 1.86197 5.64431 1.74379 5.52612L0.207422 3.98976C0.0990883 3.88143 0.0449219 3.74355 0.0449219 3.57612C0.0449219 3.4087 0.0990883 3.27082 0.207422 3.16249C0.315755 3.05416 0.453634 2.99999 0.621058 2.99999C0.788482 2.99999 0.926361 3.05416 1.03469 3.16249L2.15742 4.28522Z" fill="#78B463"/>
</svg>
