<svg width="51" height="49" viewBox="0 0 51 49" fill="none" xmlns="http://www.w3.org/2000/svg">
<path d="M25.4931 16.3299C20.8108 16.3299 16.9897 20.0012 16.9897 24.5C16.9897 28.9988 20.8108 32.6701 25.4931 32.6701C30.1755 32.6701 33.9966 28.9988 33.9966 24.5C33.9966 20.0012 30.1755 16.3299 25.4931 16.3299ZM50.9972 24.5C50.9972 21.1167 51.0291 17.7641 50.8313 14.3869C50.6335 10.4643 49.7022 6.98291 46.7167 4.11448C43.7249 1.23991 40.1079 0.351184 36.0252 0.161181C32.5039 -0.0288227 29.0145 0.00182308 25.4995 0.00182308C21.9782 0.00182308 18.4888 -0.0288227 14.9739 0.161181C10.8912 0.351184 7.2678 1.24604 4.28234 4.11448C1.29049 6.98904 0.365511 10.4643 0.167756 14.3869C-0.0299986 17.7702 0.00189745 21.1228 0.00189745 24.5C0.00189745 27.8772 -0.0299986 31.2359 0.167756 34.6131C0.365511 38.5357 1.29687 42.0171 4.28234 44.8855C7.27418 47.7601 10.8912 48.6488 14.9739 48.8388C18.4952 49.0288 21.9846 48.9982 25.4995 48.9982C29.0208 48.9982 32.5103 49.0288 36.0252 48.8388C40.1079 48.6488 43.7313 47.754 46.7167 44.8855C49.7086 42.011 50.6335 38.5357 50.8313 34.6131C51.0354 31.2359 50.9972 27.8833 50.9972 24.5ZM25.4931 37.0709C18.2528 37.0709 12.4094 31.4566 12.4094 24.5C12.4094 17.5434 18.2528 11.9291 25.4931 11.9291C32.7335 11.9291 38.5769 17.5434 38.5769 24.5C38.5769 31.4566 32.7335 37.0709 25.4931 37.0709ZM39.1127 14.3501C37.4222 14.3501 36.0571 13.0385 36.0571 11.4143C36.0571 9.79006 37.4222 8.47843 39.1127 8.47843C40.8032 8.47843 42.1684 9.79006 42.1684 11.4143C42.1689 11.8 42.0902 12.1819 41.9368 12.5384C41.7834 12.8948 41.5583 13.2186 41.2745 13.4913C40.9907 13.764 40.6536 13.9803 40.2827 14.1276C39.9117 14.275 39.5141 14.3506 39.1127 14.3501Z" fill="white"/>
</svg>
