<svg width="120" height="43" viewBox="0 0 120 43" fill="none" xmlns="http://www.w3.org/2000/svg">
<path d="M63.9919 24.344C61.9355 24.344 60.3629 23.7515 59.2742 22.685C58.1855 21.6185 57.5806 19.9595 57.5806 17.8266V9.53171H60.8468V17.8266C60.8468 19.0115 61.0887 19.841 61.6936 20.552C62.2984 21.1445 63.0242 21.5 63.9919 21.5C64.9597 21.5 65.8064 21.1445 66.2903 20.552C66.8952 19.9595 67.1371 19.13 67.1371 17.9451V9.53171H70.4032V17.8266C70.4032 19.9595 69.7984 21.6185 68.7097 22.685C67.5 23.87 65.9274 24.344 63.9919 24.344ZM73.6694 24.2255V9.65021H77.1774L81.0484 15.8121L84.9194 9.65021H88.4274V24.2255H85.1613V14.7456L81.0484 21.026H80.9274L76.8145 14.8641V24.344H73.6694V24.2255ZM105.605 24.2255L110.806 16.7601L105.847 9.65021H109.597L112.742 14.3901L115.887 9.65021H119.516L114.556 16.7601L119.637 24.2255H115.887L112.621 19.2485L109.234 24.2255H105.605ZM89.5161 24.2255L95.8064 9.53171H98.8306L105.121 24.2255H101.734L100.645 21.6185H93.871L92.7823 24.2255H89.5161ZM95.0806 18.7745H99.4355L97.2581 13.4421L95.0806 18.7745ZM57.4597 28.8469H59.1532C60.7258 28.8469 61.8145 29.9134 61.8145 31.3353C61.8145 32.7573 60.7258 33.8238 59.1532 33.8238H57.4597V28.8469ZM59.1532 33.2313C60.3629 33.2313 61.2097 32.4018 61.2097 31.3353C61.2097 30.2688 60.3629 29.4394 59.1532 29.4394H57.9436V33.2313H59.1532ZM63.1452 28.8469H63.75V33.7053H63.1452V28.8469ZM64.9597 31.3353C64.9597 30.0319 65.9274 28.8469 67.5 28.8469C68.3468 28.8469 68.8306 29.0839 69.3145 29.5579L68.9516 29.9134C68.5887 29.5579 68.1048 29.3209 67.379 29.3209C66.2903 29.3209 65.4436 30.2688 65.4436 31.3353C65.4436 32.5203 66.1694 33.3498 67.379 33.3498C67.9839 33.3498 68.4677 33.1128 68.8307 32.8758V31.6908H67.2581V31.2168H69.3145V33.2313C68.8306 33.5868 68.1048 33.9423 67.2581 33.9423C65.9274 33.8238 64.9597 32.7573 64.9597 31.3353ZM70.7661 28.8469H71.371V33.7053H70.7661V28.8469ZM74.1532 29.4394H72.4597V28.9654H76.4516V29.4394H74.7581V33.8238H74.1532V29.4394ZM78.75 28.8469H79.2339L81.5323 33.8238H80.9274L80.3226 32.5203H77.5403L76.9355 33.8238H76.3306L78.75 28.8469ZM80.0806 32.0463L78.9919 29.5579L77.7823 32.0463H80.0806ZM82.5 28.8469H83.1048V33.2313H85.8871V33.7053H82.5V28.8469ZM90.9677 28.8469H91.4516L93.75 33.8238H93.1452L92.5403 32.5203H89.7581L89.1532 33.8238H88.5484L90.9677 28.8469ZM92.2984 32.0463L91.2097 29.5579L90.121 32.0463H92.2984ZM94.2339 31.3353C94.2339 30.0319 95.2016 28.8469 96.7742 28.8469C97.621 28.8469 98.1048 29.0839 98.5887 29.5579L98.2258 30.0318C97.8629 29.6764 97.379 29.4394 96.6532 29.4394C95.5645 29.4394 94.7178 30.3873 94.7178 31.4538C94.7178 32.6388 95.4436 33.4683 96.6532 33.4683C97.2581 33.4683 97.7419 33.2313 98.1048 32.9943V31.8093H96.7742V31.3353H98.8306V33.3498C98.3468 33.7053 97.621 34.0608 96.7742 34.0608C95.2016 33.8238 94.2339 32.7573 94.2339 31.3353ZM100.04 28.8469H103.669V29.3209H100.645V30.9798H103.427V31.4538H100.645V33.2313H103.79V33.7053H100.161V28.8469H100.04ZM104.879 28.8469H105.363L108.508 32.7573V28.8469H109.113V33.8238H108.629L105.363 29.7949V33.8238H104.758V28.8469H104.879ZM110.323 31.3353C110.323 29.9134 111.411 28.8469 112.863 28.8469C113.831 28.8469 114.315 29.2024 114.798 29.6764L114.435 30.0318C114.073 29.6764 113.589 29.3209 112.863 29.3209C111.774 29.3209 110.927 30.1503 110.927 31.3353C110.927 32.5203 111.774 33.3498 112.863 33.3498C113.589 33.3498 113.952 33.1128 114.435 32.6388L114.798 32.9943C114.315 33.4683 113.71 33.8238 112.742 33.8238C111.411 33.8238 110.323 32.7573 110.323 31.3353ZM117.339 31.8093L115.282 28.8469H116.008L117.702 31.3353L119.395 28.8469H120L117.944 31.8093V33.7053H117.339V31.8093ZM18.2661 21.3815C17.2984 21.3815 16.3306 21.1445 15.7258 20.552C15.121 19.9595 14.879 19.13 14.879 18.0636V13.7976H16.5726V17.9451C16.5726 18.5376 16.6935 19.0115 16.9355 19.2485C17.1774 19.604 17.7823 19.7225 18.2661 19.7225C18.75 19.7225 19.2339 19.604 19.5968 19.2485C19.8387 18.893 19.9597 18.5376 19.9597 17.9451V13.6791H21.6532V17.8266C21.6532 18.893 21.4113 19.7225 20.8065 20.315C20.2016 21.026 19.3548 21.3815 18.2661 21.3815ZM25.5242 21.263V13.9161H27.3387L29.2742 16.6416L31.2097 13.9161H33.0242V21.263H31.4516V16.4046L29.3952 19.13L27.3387 16.4046V21.1445H25.5242V21.263ZM14.5161 31.5723L17.6613 24.107H19.2339L22.379 31.5723H20.6855L20.0806 30.2688H16.6935L16.2097 31.5723H14.5161ZM17.2984 28.8469H19.4758L18.5081 26.1214L17.2984 28.8469ZM25.6452 31.5723L28.1855 27.7804L25.6452 24.107H27.5806L29.1532 26.4769L30.7258 24.107H32.5403L30 27.6619L32.5403 31.4538H30.6048L28.9113 28.9654L27.2177 31.4538H25.6452V31.5723ZM30.6048 2.77732L29.6371 1.47385C28.6694 0.407366 27.0968 -0.185124 25.6452 0.051872L9.43548 2.30333C7.98387 2.65883 6.77419 3.60681 6.29032 5.02879L0.241935 21.5C-0.241935 22.922 0 24.4624 0.967742 25.5289L11.9758 38.0897C12.4597 38.6822 13.0645 39.0377 13.6694 39.2747C14.2742 39.7487 15 40.1042 15.7258 40.2227L32.4194 42.9481C33.871 43.1851 35.4436 42.5926 36.4113 41.5261L48.0242 26.5954C48.9919 25.4104 49.2339 23.87 48.75 22.5665L41.9758 9.17621C41.4919 7.75424 40.1613 6.80625 38.7097 6.56926L37.1371 6.45076L36.1694 4.79179C35.4436 3.48831 33.9919 2.77732 32.5403 2.77732H30.6048ZM3.62903 19.4855C2.90323 20.789 2.90323 22.3295 3.62903 23.633L10.8871 35.6013L1.69355 25.0549C0.846774 24.107 0.604839 22.922 1.08871 21.737L7.1371 5.26578C7.5 4.1993 8.46774 3.36981 9.67742 3.13282L25.8871 0.881358C27.0968 0.644362 28.3065 1.11835 29.0323 1.94784L29.6371 2.77732L15.4839 2.89582C14.0323 2.89582 12.5806 3.72531 11.8548 5.02879L3.62903 19.4855ZM7.25806 18.0636C6.29032 19.2485 6.04839 20.789 6.53226 22.0925L11.4919 35.1273L4.23387 23.159C3.62903 22.0925 3.62903 20.9075 4.23387 19.841L12.5806 5.38428C13.1855 4.3178 14.2742 3.72531 15.4839 3.72531L30.2419 3.60681L31.9355 5.97677L21.0484 5.02879C19.5968 4.79179 18.1452 5.38428 17.1774 6.45076L7.25806 18.0636ZM36.0484 6.33226L33.0242 5.97677L31.2097 3.60681H32.4194C33.629 3.60681 34.7177 4.1993 35.3226 5.26578L36.0484 6.33226ZM44.7581 23.9885C45.4839 22.685 45.4839 21.1445 44.7581 19.841L37.5 7.16175L38.4677 7.28025C39.6774 7.51724 40.6452 8.34673 41.0081 9.41321L41.129 9.53171L47.9032 22.922C48.2661 23.9885 48.1452 25.2919 47.2984 26.1214L35.6855 41.0522C34.9597 42.0001 33.75 42.3556 32.5403 42.2371L18.3871 39.9857L32.7823 39.8672C34.2339 39.8672 35.6855 39.0377 36.4113 37.7342L44.7581 23.9885ZM21.0484 5.85827L32.6613 6.80625L39.6774 16.2861C40.5242 17.2341 40.6452 18.4191 40.2823 19.604L35.0806 33.4683C34.7177 34.5348 33.75 35.3643 32.5403 35.6013L15.9677 38.6822C15.3629 38.8007 14.879 38.8007 14.2742 38.5637C13.9113 38.2082 13.5484 37.7342 13.4274 37.2602L7.37903 21.8555C7.1371 21.263 7.1371 20.6705 7.25806 20.1965C7.25806 19.604 7.5 19.0115 7.8629 18.5376L17.7823 7.04325C18.5081 6.09527 19.7177 5.62128 21.0484 5.85827ZM40.2823 15.8121L33.75 6.92475L36.5323 7.16175L44.0323 20.315C44.6371 21.3815 44.6371 22.5665 44.0323 23.633L35.6855 37.2602C35.0806 38.3267 33.9919 38.9192 32.7823 38.9192L18.3871 39.0377L32.6613 36.4307C34.1129 36.1937 35.3226 35.1273 35.8065 33.7053L41.0081 19.7225C41.4919 18.4191 41.25 16.8786 40.2823 15.8121Z" fill="white"/>
</svg>
