<svg width="67" height="24" viewBox="0 0 67 24" fill="none" xmlns="http://www.w3.org/2000/svg">
<path d="M35.7288 13.5873C34.5806 13.5873 33.7026 13.2566 33.0948 12.6614C32.4869 12.0661 32.1492 11.1402 32.1492 9.94971V5.32002H33.9728V9.94971C33.9728 10.6111 34.1079 11.0741 34.4456 11.4709C34.7833 11.8016 35.1885 12 35.7288 12C36.2692 12 36.7419 11.8016 37.0121 11.4709C37.3498 11.1402 37.4849 10.6772 37.4849 10.0158V5.32002H39.3085V9.94971C39.3085 11.1402 38.9708 12.0661 38.3629 12.6614C37.6875 13.3228 36.8095 13.5873 35.7288 13.5873ZM41.1321 13.5212V5.38616H43.0907L45.252 8.82536L47.4133 5.38616H49.372V13.5212H47.5484V8.23011L45.252 11.7354H45.1845L42.8881 8.29625V13.5873H41.1321V13.5212ZM58.9627 13.5212L61.8669 9.35447L59.0978 5.38616H61.1915L62.9476 8.0317L64.7036 5.38616H66.7298L63.9607 9.35447L66.7974 13.5212H64.7036L62.88 10.7434L60.9889 13.5212H58.9627ZM49.9798 13.5212L53.4919 5.32002H55.1804L58.6925 13.5212H56.8014L56.1935 12.0661H52.4113L51.8034 13.5212H49.9798ZM53.0867 10.4788H55.5181L54.3024 7.50259L53.0867 10.4788ZM32.0817 16.1006H33.0272C33.9052 16.1006 34.5131 16.6958 34.5131 17.4895C34.5131 18.2831 33.9052 18.8784 33.0272 18.8784H32.0817V16.1006ZM33.0272 18.5477C33.7026 18.5477 34.1754 18.0847 34.1754 17.4895C34.1754 16.8942 33.7026 16.4313 33.0272 16.4313H32.3518V18.5477H33.0272ZM35.2561 16.1006H35.5938V18.8123H35.2561V16.1006ZM36.2692 17.4895C36.2692 16.762 36.8095 16.1006 37.6875 16.1006C38.1603 16.1006 38.4304 16.2329 38.7006 16.4974L38.498 16.6958C38.2954 16.4974 38.0252 16.3651 37.62 16.3651C37.0121 16.3651 36.5393 16.8942 36.5393 17.4895C36.5393 18.1509 36.9446 18.6138 37.62 18.6138C37.9577 18.6138 38.2278 18.4816 38.4304 18.3493V17.6879H37.5524V17.4233H38.7006V18.5477C38.4304 18.7461 38.0252 18.9445 37.5524 18.9445C36.8095 18.8784 36.2692 18.2831 36.2692 17.4895ZM39.5111 16.1006H39.8488V18.8123H39.5111V16.1006ZM41.4022 16.4313H40.4567V16.1667H42.6855V16.4313H41.7399V18.8784H41.4022V16.4313ZM43.9688 16.1006H44.2389L45.5222 18.8784H45.1845L44.8468 18.1509H43.2933L42.9556 18.8784H42.6179L43.9688 16.1006ZM44.7117 17.8863L44.1038 16.4974L43.4284 17.8863H44.7117ZM46.0625 16.1006H46.4002V18.5477H47.9536V18.8123H46.0625V16.1006ZM50.7903 16.1006H51.0605L52.3438 18.8784H52.0061L51.6683 18.1509H50.1149L49.7772 18.8784H49.4395L50.7903 16.1006ZM51.5333 17.8863L50.9254 16.4974L50.3175 17.8863H51.5333ZM52.6139 17.4895C52.6139 16.762 53.1542 16.1006 54.0323 16.1006C54.505 16.1006 54.7752 16.2329 55.0454 16.4974L54.8427 16.762C54.6401 16.5635 54.37 16.4313 53.9647 16.4313C53.3569 16.4313 52.8841 16.9604 52.8841 17.5556C52.8841 18.217 53.2893 18.68 53.9647 18.68C54.3024 18.68 54.5726 18.5477 54.7752 18.4154V17.754H54.0323V17.4895H55.1804V18.6138C54.9103 18.8123 54.505 19.0107 54.0323 19.0107C53.1542 18.8784 52.6139 18.2831 52.6139 17.4895ZM55.8558 16.1006H57.8821V16.3651H56.1935V17.2911H57.747V17.5556H56.1935V18.5477H57.9496V18.8123H55.9234V16.1006H55.8558ZM58.5575 16.1006H58.8276L60.5837 18.2831V16.1006H60.9214V18.8784H60.6512L58.8276 16.6297V18.8784H58.4899V16.1006H58.5575ZM61.5968 17.4895C61.5968 16.6958 62.2046 16.1006 63.0151 16.1006C63.5554 16.1006 63.8256 16.299 64.0958 16.5635L63.8931 16.762C63.6905 16.5635 63.4204 16.3651 63.0151 16.3651C62.4073 16.3651 61.9345 16.8281 61.9345 17.4895C61.9345 18.1509 62.4073 18.6138 63.0151 18.6138C63.4204 18.6138 63.623 18.4816 63.8931 18.217L64.0958 18.4154C63.8256 18.68 63.4879 18.8784 62.9476 18.8784C62.2046 18.8784 61.5968 18.2831 61.5968 17.4895ZM65.5141 17.754L64.3659 16.1006H64.7712L65.7167 17.4895L66.6623 16.1006H67L65.8518 17.754V18.8123H65.5141V17.754ZM10.1986 11.9339C9.65827 11.9339 9.11794 11.8016 8.78024 11.4709C8.44254 11.1402 8.30746 10.6772 8.30746 10.082V7.70101H9.25302V10.0158C9.25302 10.3465 9.32056 10.6111 9.45565 10.7434C9.59073 10.9418 9.92843 11.0079 10.1986 11.0079C10.4688 11.0079 10.7389 10.9418 10.9415 10.7434C11.0766 10.545 11.1442 10.3465 11.1442 10.0158V7.63487H12.0897V9.94971C12.0897 10.545 11.9546 11.0079 11.6169 11.3386C11.2792 11.7354 10.8065 11.9339 10.1986 11.9339ZM14.251 11.8677V7.76714H15.2641L16.3448 9.28833L17.4254 7.76714H18.4385V11.8677H17.5605V9.15605L16.4123 10.6772L15.2641 9.15605V11.8016H14.251V11.8677ZM8.10484 17.6218L9.86089 13.455H10.7389L12.495 17.6218H11.5494L11.2117 16.8942H9.32057L9.0504 17.6218H8.10484ZM9.65827 16.1006H10.874L10.3337 14.5794L9.65827 16.1006ZM14.3185 17.6218L15.7369 15.5053L14.3185 13.455H15.3992L16.2772 14.7778L17.1552 13.455H18.1683L16.75 15.4392L18.1683 17.5556H17.0877L16.1421 16.1667L15.1966 17.5556H14.3185V17.6218ZM17.0877 1.55013L16.5474 0.822613C16.0071 0.227367 15.129 -0.103325 14.3185 0.0289518L5.26815 1.28558C4.45766 1.484 3.78226 2.0131 3.5121 2.80676L0.135081 12C-0.135081 12.7937 0 13.6535 0.540323 14.2487L6.68649 21.2594C6.95665 21.5901 7.29435 21.7885 7.63206 21.9208C7.96976 22.1853 8.375 22.3837 8.78024 22.4499L18.1008 23.9711C18.9113 24.1033 19.7893 23.7726 20.3296 23.1774L26.8135 14.844C27.3538 14.1826 27.4889 13.3228 27.2188 12.5952L23.4365 5.12161C23.1663 4.32795 22.4234 3.79884 21.6129 3.66656L20.7349 3.60043L20.1946 2.67449C19.7893 1.94697 18.9788 1.55013 18.1683 1.55013H17.0877ZM2.02621 10.8756C1.62097 11.6032 1.62097 12.463 2.02621 13.1905L6.07863 19.8705L0.945565 13.9842C0.472782 13.455 0.337702 12.7937 0.607863 12.1323L3.98488 2.93904C4.1875 2.3438 4.72782 1.88083 5.40323 1.74855L14.4536 0.491921C15.129 0.359644 15.8044 0.624197 16.2097 1.08717L16.5474 1.55013L8.64516 1.61627C7.83468 1.61627 7.02419 2.07924 6.61895 2.80676L2.02621 10.8756ZM4.05242 10.082C3.5121 10.7434 3.37702 11.6032 3.64718 12.3307L6.41633 19.6059L2.36391 12.9259C2.02621 12.3307 2.02621 11.6693 2.36391 11.0741L7.02419 3.00518C7.3619 2.40993 7.96976 2.07924 8.64516 2.07924L16.8851 2.0131L17.8306 3.33587L11.752 2.80676C10.9415 2.67449 10.131 3.00518 9.59073 3.60043L4.05242 10.082ZM20.127 3.53429L18.4385 3.33587L17.4254 2.0131H18.1008C18.7762 2.0131 19.3841 2.3438 19.7218 2.93904L20.127 3.53429ZM24.9899 13.3889C25.3952 12.6614 25.3952 11.8016 24.9899 11.0741L20.9375 3.99726L21.4778 4.06339C22.1532 4.19567 22.6936 4.65864 22.8962 5.25388L22.9637 5.32002L26.746 12.7937C26.9486 13.3889 26.881 14.1164 26.4083 14.5794L19.9244 22.9128C19.5192 23.4419 18.8438 23.6404 18.1683 23.5742L10.2661 22.3176L18.3034 22.2514C19.1139 22.2514 19.9244 21.7885 20.3296 21.061L24.9899 13.3889ZM11.752 3.26973L18.2359 3.79884L22.1532 9.08991C22.626 9.61902 22.6935 10.2804 22.4909 10.9418L19.5867 18.68C19.3841 19.2752 18.8438 19.7382 18.1683 19.8705L8.91532 21.5901C8.57762 21.6562 8.30746 21.6562 7.96976 21.5239C7.76714 21.3255 7.56452 21.061 7.49698 20.7964L4.11996 12.1984C3.98488 11.8677 3.98488 11.537 4.05242 11.2725C4.05242 10.9418 4.1875 10.6111 4.39012 10.3465L9.92843 3.93112C10.3337 3.40201 11.0091 3.13746 11.752 3.26973ZM22.4909 8.82536L18.8438 3.86498L20.3972 3.99726L24.5847 11.3386C24.9224 11.9339 24.9224 12.5952 24.5847 13.1905L19.9244 20.7964C19.5867 21.3917 18.9788 21.7223 18.3034 21.7223L10.2661 21.7885L18.2359 20.3334C19.0464 20.2012 19.7218 19.6059 19.9919 18.8123L22.8962 11.0079C23.1663 10.2804 23.0312 9.4206 22.4909 8.82536Z" fill="white"/>
</svg>
