<svg width="64" height="47" viewBox="0 0 64 47" fill="none" xmlns="http://www.w3.org/2000/svg">
<path d="M25.6 33.5714L42.208 23.5L25.6 13.4286V33.5714ZM62.592 7.285C63.008 8.86286 63.296 10.9779 63.488 13.6636C63.712 16.3493 63.808 18.6657 63.808 20.68L64 23.5C64 30.8521 63.488 36.2571 62.592 39.715C61.792 42.7364 59.936 44.6836 57.056 45.5229C55.552 45.9593 52.8 46.2614 48.576 46.4629C44.416 46.6979 40.608 46.7986 37.088 46.7986L32 47C18.592 47 10.24 46.4629 6.944 45.5229C4.064 44.6836 2.208 42.7364 1.408 39.715C0.992 38.1371 0.704 36.0221 0.512 33.3364C0.288 30.6507 0.192 28.3343 0.192 26.32L0 23.5C0 16.1479 0.512 10.7429 1.408 7.285C2.208 4.26357 4.064 2.31643 6.944 1.47714C8.448 1.04071 11.2 0.738571 15.424 0.537142C19.584 0.302142 23.392 0.201428 26.912 0.201428L32 0C45.408 0 53.76 0.537143 57.056 1.47714C59.936 2.31643 61.792 4.26357 62.592 7.285Z" fill="white"/>
</svg>
