<svg width="160" height="35" viewBox="0 0 160 35" fill="none" xmlns="http://www.w3.org/2000/svg">
<path d="M33.9671 1C23.4447 1 15.6913 29.1518 0 34.8557H11.8146H12.5531C24.7369 34.8557 37.6592 1 45.4125 1H33.9671Z" fill="url(#paint0_linear_458_978)"/>
<path d="M49.2866 1C38.6071 1 30.738 29.1518 14.8125 34.8557H26.8035H27.5529C39.9186 34.8557 53.0337 1 60.9028 1H49.2866Z" fill="url(#paint1_linear_458_978)"/>
<path d="M64.2972 1C53.7747 1 46.0214 29.1518 30.3301 34.8557H42.1447H42.8831C55.067 34.8557 67.9892 1 75.7426 1H64.2972Z" fill="url(#paint2_linear_458_978)"/>
<path d="M77.9023 34.8558V30.7931H78.5287L81.508 34.3367V30.7931H81.965V34.8558H81.3387L78.3594 31.3122V34.8558H77.9023Z" fill="white"/>
<path d="M86.1577 34.8558C86.0335 34.8558 85.9188 34.8257 85.8135 34.7655C85.7119 34.7016 85.6291 34.6188 85.5652 34.5172C85.505 34.4119 85.4749 34.2972 85.4749 34.173V32.2658C85.4749 32.1417 85.505 32.0289 85.5652 31.9273C85.6291 31.822 85.7119 31.7392 85.8135 31.679C85.9188 31.6151 86.0335 31.5831 86.1577 31.5831H88.1213C88.2492 31.5831 88.3639 31.6151 88.4655 31.679C88.5708 31.7392 88.6536 31.822 88.7138 31.9273C88.7777 32.0289 88.8097 32.1417 88.8097 32.2658V33.4508H85.9376V34.173C85.9376 34.2332 85.9583 34.2859 85.9997 34.331C86.0448 34.3724 86.0975 34.3931 86.1577 34.3931H88.8097V34.8558H86.1577ZM85.9376 32.9881H88.3414V32.2658C88.3414 32.2057 88.3188 32.1549 88.2737 32.1135C88.2323 32.0683 88.1815 32.0458 88.1213 32.0458H86.1577C86.0975 32.0458 86.0448 32.0683 85.9997 32.1135C85.9583 32.1549 85.9376 32.2057 85.9376 32.2658V32.9881Z" fill="white"/>
<path d="M92.1658 34.8558V34.8502L93.5313 33.1912L92.1658 31.5887V31.5831H92.7752L93.836 32.8245L94.9025 31.5831H95.5063V31.5887L94.1407 33.1912L95.5119 34.8502V34.8558H94.9025L93.836 33.5467L92.7752 34.8558H92.1658Z" fill="white"/>
<path d="M99.7009 34.8558C99.573 34.8558 99.4564 34.8257 99.351 34.7655C99.2495 34.7016 99.1686 34.6188 99.1084 34.5172C99.0482 34.4119 99.0181 34.2972 99.0181 34.173V30.511H99.4808V31.5831H100.897V32.0458H99.4808V34.173C99.4808 34.2332 99.5015 34.2859 99.5429 34.331C99.588 34.3724 99.6407 34.3931 99.7009 34.3931H100.897V34.8558H99.7009Z" fill="white"/>
<path d="M109.359 34.8558C109.235 34.8558 109.12 34.8257 109.015 34.7655C108.913 34.7016 108.83 34.6188 108.766 34.5172C108.706 34.4119 108.676 34.2972 108.676 34.173V30.511H109.139V34.173C109.139 34.2332 109.16 34.2859 109.201 34.331C109.246 34.3724 109.299 34.3931 109.359 34.3931H109.912V34.8558H109.359Z" fill="white"/>
<path d="M113.879 34.8558C113.755 34.8558 113.64 34.8257 113.535 34.7655C113.433 34.7016 113.351 34.6188 113.287 34.5172C113.227 34.4119 113.196 34.2972 113.196 34.173V32.2658C113.196 32.1417 113.227 32.0289 113.287 31.9273C113.351 31.822 113.433 31.7392 113.535 31.679C113.64 31.6151 113.755 31.5831 113.879 31.5831H115.843C115.971 31.5831 116.086 31.6151 116.187 31.679C116.292 31.7392 116.375 31.822 116.435 31.9273C116.499 32.0289 116.531 32.1417 116.531 32.2658V33.4508H113.659V34.173C113.659 34.2332 113.68 34.2859 113.721 34.331C113.766 34.3724 113.819 34.3931 113.879 34.3931H116.531V34.8558H113.879ZM113.659 32.9881H116.063V32.2658C116.063 32.2057 116.04 32.1549 115.995 32.1135C115.954 32.0683 115.903 32.0458 115.843 32.0458H113.879C113.819 32.0458 113.766 32.0683 113.721 32.1135C113.68 32.1549 113.659 32.2057 113.659 32.2658V32.9881Z" fill="white"/>
<path d="M121.535 34.8558L119.73 31.5831H120.271L121.806 34.4044L123.341 31.5831H123.883L122.071 34.8558H121.535Z" fill="white"/>
<path d="M127.775 34.8558C127.651 34.8558 127.536 34.8257 127.431 34.7655C127.329 34.7016 127.246 34.6188 127.182 34.5172C127.122 34.4119 127.092 34.2972 127.092 34.173V32.2658C127.092 32.1417 127.122 32.0289 127.182 31.9273C127.246 31.822 127.329 31.7392 127.431 31.679C127.536 31.6151 127.651 31.5831 127.775 31.5831H129.738C129.866 31.5831 129.981 31.6151 130.083 31.679C130.188 31.7392 130.271 31.822 130.331 31.9273C130.395 32.0289 130.427 32.1417 130.427 32.2658V33.4508H127.555V34.173C127.555 34.2332 127.575 34.2859 127.617 34.331C127.662 34.3724 127.715 34.3931 127.775 34.3931H130.427V34.8558H127.775ZM127.555 32.9881H129.959V32.2658C129.959 32.2057 129.936 32.1549 129.891 32.1135C129.849 32.0683 129.799 32.0458 129.738 32.0458H127.775C127.715 32.0458 127.662 32.0683 127.617 32.1135C127.575 32.1549 127.555 32.2057 127.555 32.2658V32.9881Z" fill="white"/>
<path d="M134.483 34.8558C134.359 34.8558 134.244 34.8257 134.139 34.7655C134.037 34.7016 133.955 34.6188 133.891 34.5172C133.83 34.4119 133.8 34.2972 133.8 34.173V30.511H134.263V34.173C134.263 34.2332 134.284 34.2859 134.325 34.331C134.37 34.3724 134.423 34.3931 134.483 34.3931H135.036V34.8558H134.483Z" fill="white"/>
<path d="M143.529 34.8558C143.405 34.8558 143.291 34.8257 143.185 34.7655C143.084 34.7016 143.001 34.6188 142.937 34.5172C142.877 34.4119 142.847 34.2972 142.847 34.173V32.2658C142.847 32.1417 142.877 32.0289 142.937 31.9273C143.001 31.822 143.084 31.7392 143.185 31.679C143.291 31.6151 143.405 31.5831 143.529 31.5831H146.17V32.0458H143.529C143.469 32.0458 143.417 32.0683 143.371 32.1135C143.33 32.1549 143.309 32.2057 143.309 32.2658V34.173C143.309 34.2332 143.33 34.2859 143.371 34.331C143.417 34.3724 143.469 34.3931 143.529 34.3931H146.181V34.8558H143.529Z" fill="white"/>
<path d="M150.364 34.8558C150.24 34.8558 150.126 34.8257 150.02 34.7655C149.919 34.7016 149.836 34.6188 149.772 34.5172C149.712 34.4119 149.682 34.2972 149.682 34.173V32.9881H152.548V32.2658C152.548 32.2057 152.526 32.1549 152.48 32.1135C152.439 32.0683 152.388 32.0458 152.328 32.0458H149.682V31.5831H152.328C152.456 31.5831 152.571 31.6151 152.672 31.679C152.778 31.7392 152.86 31.822 152.921 31.9273C152.984 32.0289 153.016 32.1417 153.016 32.2658V34.8558H150.364ZM150.364 34.3931H152.548V33.4508H150.144V34.173C150.144 34.2332 150.165 34.2859 150.206 34.331C150.252 34.3724 150.304 34.3931 150.364 34.3931Z" fill="white"/>
<path d="M156.478 34.8558V32.2658C156.478 32.1417 156.508 32.0289 156.568 31.9273C156.632 31.822 156.715 31.7392 156.816 31.679C156.922 31.6151 157.037 31.5831 157.161 31.5831H159V32.0458H157.161C157.101 32.0458 157.048 32.0683 157.003 32.1135C156.961 32.1549 156.941 32.2057 156.941 32.2658V34.8558H156.478Z" fill="white"/>
<path d="M77.9023 34.8558V30.7931H78.5287L81.508 34.3367V30.7931H81.965V34.8558H81.3387L78.3594 31.3122V34.8558H77.9023Z" stroke="white"/>
<path d="M86.1577 34.8558C86.0335 34.8558 85.9188 34.8257 85.8135 34.7655C85.7119 34.7016 85.6291 34.6188 85.5652 34.5172C85.505 34.4119 85.4749 34.2972 85.4749 34.173V32.2658C85.4749 32.1417 85.505 32.0289 85.5652 31.9273C85.6291 31.822 85.7119 31.7392 85.8135 31.679C85.9188 31.6151 86.0335 31.5831 86.1577 31.5831H88.1213C88.2492 31.5831 88.3639 31.6151 88.4655 31.679C88.5708 31.7392 88.6536 31.822 88.7138 31.9273C88.7777 32.0289 88.8097 32.1417 88.8097 32.2658V33.4508H85.9376V34.173C85.9376 34.2332 85.9583 34.2859 85.9997 34.331C86.0448 34.3724 86.0975 34.3931 86.1577 34.3931H88.8097V34.8558H86.1577ZM85.9376 32.9881H88.3414V32.2658C88.3414 32.2057 88.3188 32.1549 88.2737 32.1135C88.2323 32.0683 88.1815 32.0458 88.1213 32.0458H86.1577C86.0975 32.0458 86.0448 32.0683 85.9997 32.1135C85.9583 32.1549 85.9376 32.2057 85.9376 32.2658V32.9881Z" stroke="white"/>
<path d="M92.1658 34.8558V34.8502L93.5313 33.1912L92.1658 31.5887V31.5831H92.7752L93.836 32.8245L94.9025 31.5831H95.5063V31.5887L94.1407 33.1912L95.5119 34.8502V34.8558H94.9025L93.836 33.5467L92.7752 34.8558H92.1658Z" stroke="white"/>
<path d="M99.7009 34.8558C99.573 34.8558 99.4564 34.8257 99.351 34.7655C99.2495 34.7016 99.1686 34.6188 99.1084 34.5172C99.0482 34.4119 99.0181 34.2972 99.0181 34.173V30.511H99.4808V31.5831H100.897V32.0458H99.4808V34.173C99.4808 34.2332 99.5015 34.2859 99.5429 34.331C99.588 34.3724 99.6407 34.3931 99.7009 34.3931H100.897V34.8558H99.7009Z" stroke="white"/>
<path d="M109.359 34.8558C109.235 34.8558 109.12 34.8257 109.015 34.7655C108.913 34.7016 108.83 34.6188 108.766 34.5172C108.706 34.4119 108.676 34.2972 108.676 34.173V30.511H109.139V34.173C109.139 34.2332 109.16 34.2859 109.201 34.331C109.246 34.3724 109.299 34.3931 109.359 34.3931H109.912V34.8558H109.359Z" stroke="white"/>
<path d="M113.879 34.8558C113.755 34.8558 113.64 34.8257 113.535 34.7655C113.433 34.7016 113.351 34.6188 113.287 34.5172C113.227 34.4119 113.196 34.2972 113.196 34.173V32.2658C113.196 32.1417 113.227 32.0289 113.287 31.9273C113.351 31.822 113.433 31.7392 113.535 31.679C113.64 31.6151 113.755 31.5831 113.879 31.5831H115.843C115.971 31.5831 116.086 31.6151 116.187 31.679C116.292 31.7392 116.375 31.822 116.435 31.9273C116.499 32.0289 116.531 32.1417 116.531 32.2658V33.4508H113.659V34.173C113.659 34.2332 113.68 34.2859 113.721 34.331C113.766 34.3724 113.819 34.3931 113.879 34.3931H116.531V34.8558H113.879ZM113.659 32.9881H116.063V32.2658C116.063 32.2057 116.04 32.1549 115.995 32.1135C115.954 32.0683 115.903 32.0458 115.843 32.0458H113.879C113.819 32.0458 113.766 32.0683 113.721 32.1135C113.68 32.1549 113.659 32.2057 113.659 32.2658V32.9881Z" stroke="white"/>
<path d="M121.535 34.8558L119.73 31.5831H120.271L121.806 34.4044L123.341 31.5831H123.883L122.071 34.8558H121.535Z" stroke="white"/>
<path d="M127.775 34.8558C127.651 34.8558 127.536 34.8257 127.431 34.7655C127.329 34.7016 127.246 34.6188 127.182 34.5172C127.122 34.4119 127.092 34.2972 127.092 34.173V32.2658C127.092 32.1417 127.122 32.0289 127.182 31.9273C127.246 31.822 127.329 31.7392 127.431 31.679C127.536 31.6151 127.651 31.5831 127.775 31.5831H129.738C129.866 31.5831 129.981 31.6151 130.083 31.679C130.188 31.7392 130.271 31.822 130.331 31.9273C130.395 32.0289 130.427 32.1417 130.427 32.2658V33.4508H127.555V34.173C127.555 34.2332 127.575 34.2859 127.617 34.331C127.662 34.3724 127.715 34.3931 127.775 34.3931H130.427V34.8558H127.775ZM127.555 32.9881H129.959V32.2658C129.959 32.2057 129.936 32.1549 129.891 32.1135C129.849 32.0683 129.799 32.0458 129.738 32.0458H127.775C127.715 32.0458 127.662 32.0683 127.617 32.1135C127.575 32.1549 127.555 32.2057 127.555 32.2658V32.9881Z" stroke="white"/>
<path d="M134.483 34.8558C134.359 34.8558 134.244 34.8257 134.139 34.7655C134.037 34.7016 133.955 34.6188 133.891 34.5172C133.83 34.4119 133.8 34.2972 133.8 34.173V30.511H134.263V34.173C134.263 34.2332 134.284 34.2859 134.325 34.331C134.37 34.3724 134.423 34.3931 134.483 34.3931H135.036V34.8558H134.483Z" stroke="white"/>
<path d="M143.529 34.8558C143.405 34.8558 143.291 34.8257 143.185 34.7655C143.084 34.7016 143.001 34.6188 142.937 34.5172C142.877 34.4119 142.847 34.2972 142.847 34.173V32.2658C142.847 32.1417 142.877 32.0289 142.937 31.9273C143.001 31.822 143.084 31.7392 143.185 31.679C143.291 31.6151 143.405 31.5831 143.529 31.5831H146.17V32.0458H143.529C143.469 32.0458 143.417 32.0683 143.371 32.1135C143.33 32.1549 143.309 32.2057 143.309 32.2658V34.173C143.309 34.2332 143.33 34.2859 143.371 34.331C143.417 34.3724 143.469 34.3931 143.529 34.3931H146.181V34.8558H143.529Z" stroke="white"/>
<path d="M150.364 34.8558C150.24 34.8558 150.126 34.8257 150.02 34.7655C149.919 34.7016 149.836 34.6188 149.772 34.5172C149.712 34.4119 149.682 34.2972 149.682 34.173V32.9881H152.548V32.2658C152.548 32.2057 152.526 32.1549 152.48 32.1135C152.439 32.0683 152.388 32.0458 152.328 32.0458H149.682V31.5831H152.328C152.456 31.5831 152.571 31.6151 152.672 31.679C152.778 31.7392 152.86 31.822 152.921 31.9273C152.984 32.0289 153.016 32.1417 153.016 32.2658V34.8558H150.364ZM150.364 34.3931H152.548V33.4508H150.144V34.173C150.144 34.2332 150.165 34.2859 150.206 34.331C150.252 34.3724 150.304 34.3931 150.364 34.3931Z" stroke="white"/>
<path d="M156.478 34.8558V32.2658C156.478 32.1417 156.508 32.0289 156.568 31.9273C156.632 31.822 156.715 31.7392 156.816 31.679C156.922 31.6151 157.037 31.5831 157.161 31.5831H159V32.0458H157.161C157.101 32.0458 157.048 32.0683 157.003 32.1135C156.961 32.1549 156.941 32.2057 156.941 32.2658V34.8558H156.478Z" stroke="white"/>
<path d="M78.8633 24.2755V24.7755H79.3633H83.5529H84.0529V24.2755V8.92047L97.2309 24.5972L97.3807 24.7755H97.6136H102.216H102.716V24.2755V1.42285V0.922853H102.216H97.9945H97.4945V1.42285V16.7457L84.3483 1.10119L84.1985 0.922853H83.9655H79.3633H78.8633V1.42285V24.2755ZM107.684 24.2755V24.7755H108.184H131.037H131.537V24.2755V20.0541V19.5541H131.037H112.874V1.39111V0.891113H112.374H108.184H107.684V1.39111V24.2755ZM137.196 24.0987L137.196 24.0987L137.202 24.1023C137.958 24.5512 138.787 24.7755 139.679 24.7755H158.057H158.557V24.2755V20.0541V19.5541H158.057H140.568C140.343 19.5541 140.199 19.4973 140.097 19.4139C140.014 19.312 139.957 19.1678 139.957 18.9432V6.75513C139.957 6.49336 140.022 6.36299 140.088 6.29228C140.19 6.20461 140.336 6.14424 140.568 6.14424H158.057H158.557V5.64424V1.42285V0.922853H158.057H139.679C138.787 0.922853 137.958 1.14707 137.202 1.59598L137.202 1.59594L137.196 1.59961C136.47 2.04454 135.885 2.64252 135.442 3.38642C134.991 4.12385 134.767 4.94397 134.767 5.83468V19.8636C134.767 20.7556 134.992 21.5846 135.44 22.3407L135.44 22.3407L135.444 22.3467C135.887 23.0699 136.473 23.6555 137.196 24.0987Z" fill="white" stroke="white"/>
<defs>
<linearGradient id="paint0_linear_458_978" x1="26.9037" y1="13.4608" x2="12.7697" y2="34.7912" gradientUnits="userSpaceOnUse">
<stop stop-color="#EB3238"/>
<stop offset="1" stop-color="#EB3238" stop-opacity="0"/>
</linearGradient>
<linearGradient id="paint1_linear_458_978" x1="45.988" y1="8.7586" x2="39.0547" y2="34.9249" gradientUnits="userSpaceOnUse">
<stop stop-color="#3E4096"/>
<stop offset="0.495818" stop-color="#3E4096" stop-opacity="0.610731"/>
<stop offset="1" stop-color="#3E4096" stop-opacity="0"/>
</linearGradient>
<linearGradient id="paint2_linear_458_978" x1="59.8072" y1="9.93415" x2="42.8506" y2="34.0714" gradientUnits="userSpaceOnUse">
<stop stop-color="#00B0EF"/>
<stop offset="1" stop-color="#00B0EF" stop-opacity="0"/>
</linearGradient>
</defs>
</svg>
