<svg width="163" height="36" viewBox="0 0 163 36" fill="none" xmlns="http://www.w3.org/2000/svg">
<path d="M34.4392 0.954102C23.8547 0.954102 16.0555 29.2722 0.271484 35.0098H12.1559H12.8987C25.1545 35.0098 38.1531 0.954102 45.9523 0.954102H34.4392Z" fill="url(#paint0_linear_453_748)"/>
<path d="M49.8496 0.954102C39.107 0.954102 31.1915 29.2722 15.1719 35.0098H27.2337H27.9876C40.4263 35.0098 53.6189 0.954102 61.5345 0.954102H49.8496Z" fill="url(#paint1_linear_453_748)"/>
<path d="M64.9471 0.954102C54.3625 0.954102 46.5633 29.2722 30.7793 35.0098H42.6637H43.4065C55.6623 35.0098 68.6609 0.954102 76.4601 0.954102H64.9471Z" fill="url(#paint2_linear_453_748)"/>
<path d="M81 35.0092V30.9225H81.63L84.6269 34.487V30.9225H85.0867V35.0092H84.4567L81.4598 31.4447V35.0092H81Z" fill="#1E1E1E"/>
<path d="M89.3041 35.0092C89.1792 35.0092 89.0638 34.9789 88.9579 34.9183C88.8557 34.854 88.7725 34.7708 88.7081 34.6686C88.6476 34.5627 88.6173 34.4472 88.6173 34.3224V32.4039C88.6173 32.279 88.6476 32.1655 88.7081 32.0633C88.7725 31.9574 88.8557 31.8741 88.9579 31.8136C89.0638 31.7493 89.1792 31.7171 89.3041 31.7171H91.2793C91.408 31.7171 91.5234 31.7493 91.6256 31.8136C91.7315 31.8741 91.8148 31.9574 91.8753 32.0633C91.9396 32.1655 91.9718 32.279 91.9718 32.4039V33.5958H89.0827V34.3224C89.0827 34.3829 89.1036 34.4359 89.1452 34.4813C89.1906 34.5229 89.2436 34.5437 89.3041 34.5437H91.9718V35.0092H89.3041ZM89.0827 33.1304H91.5007V32.4039C91.5007 32.3434 91.478 32.2923 91.4326 32.2506C91.391 32.2052 91.3399 32.1825 91.2793 32.1825H89.3041C89.2436 32.1825 89.1906 32.2052 89.1452 32.2506C89.1036 32.2923 89.0827 32.3434 89.0827 32.4039V33.1304Z" fill="#1E1E1E"/>
<path d="M95.3478 35.0092V35.0035L96.7213 33.3348L95.3478 31.7228V31.7171H95.9608L97.0278 32.9658L98.1006 31.7171H98.7079V31.7228L97.3343 33.3348L98.7136 35.0035V35.0092H98.1006L97.0278 33.6923L95.9608 35.0092H95.3478Z" fill="#1E1E1E"/>
<path d="M102.927 35.0092C102.799 35.0092 102.681 34.9789 102.575 34.9183C102.473 34.854 102.392 34.7708 102.331 34.6686C102.271 34.5627 102.241 34.4472 102.241 34.3224V30.6387H102.706V31.7171H104.131V32.1825H102.706V34.3224C102.706 34.3829 102.727 34.4359 102.768 34.4813C102.814 34.5229 102.867 34.5437 102.927 34.5437H104.131V35.0092H102.927Z" fill="#1E1E1E"/>
<path d="M112.642 35.0092C112.518 35.0092 112.402 34.9789 112.296 34.9183C112.194 34.854 112.111 34.7708 112.046 34.6686C111.986 34.5627 111.956 34.4472 111.956 34.3224V30.6387H112.421V34.3224C112.421 34.3829 112.442 34.4359 112.483 34.4813C112.529 34.5229 112.582 34.5437 112.642 34.5437H113.199V35.0092H112.642Z" fill="#1E1E1E"/>
<path d="M117.189 35.0092C117.065 35.0092 116.949 34.9789 116.843 34.9183C116.741 34.854 116.658 34.7708 116.593 34.6686C116.533 34.5627 116.503 34.4472 116.503 34.3224V32.4039C116.503 32.279 116.533 32.1655 116.593 32.0633C116.658 31.9574 116.741 31.8741 116.843 31.8136C116.949 31.7493 117.065 31.7171 117.189 31.7171H119.165C119.293 31.7171 119.409 31.7493 119.511 31.8136C119.617 31.8741 119.7 31.9574 119.761 32.0633C119.825 32.1655 119.857 32.279 119.857 32.4039V33.5958H116.968V34.3224C116.968 34.3829 116.989 34.4359 117.031 34.4813C117.076 34.5229 117.129 34.5437 117.189 34.5437H119.857V35.0092H117.189ZM116.968 33.1304H119.386V32.4039C119.386 32.3434 119.363 32.2923 119.318 32.2506C119.276 32.2052 119.225 32.1825 119.165 32.1825H117.189C117.129 32.1825 117.076 32.2052 117.031 32.2506C116.989 32.2923 116.968 32.3434 116.968 32.4039V33.1304Z" fill="#1E1E1E"/>
<path d="M124.891 35.0092L123.075 31.7171H123.619L125.163 34.5551L126.707 31.7171H127.252L125.43 35.0092H124.891Z" fill="#1E1E1E"/>
<path d="M131.167 35.0092C131.042 35.0092 130.927 34.9789 130.821 34.9183C130.719 34.854 130.636 34.7708 130.571 34.6686C130.511 34.5627 130.48 34.4472 130.48 34.3224V32.4039C130.48 32.279 130.511 32.1655 130.571 32.0633C130.636 31.9574 130.719 31.8741 130.821 31.8136C130.927 31.7493 131.042 31.7171 131.167 31.7171H133.142C133.271 31.7171 133.386 31.7493 133.489 31.8136C133.595 31.8741 133.678 31.9574 133.738 32.0633C133.803 32.1655 133.835 32.279 133.835 32.4039V33.5958H130.946V34.3224C130.946 34.3829 130.967 34.4359 131.008 34.4813C131.054 34.5229 131.107 34.5437 131.167 34.5437H133.835V35.0092H131.167ZM130.946 33.1304H133.364V32.4039C133.364 32.3434 133.341 32.2923 133.296 32.2506C133.254 32.2052 133.203 32.1825 133.142 32.1825H131.167C131.107 32.1825 131.054 32.2052 131.008 32.2506C130.967 32.2923 130.946 32.3434 130.946 32.4039V33.1304Z" fill="#1E1E1E"/>
<path d="M137.915 35.0092C137.79 35.0092 137.675 34.9789 137.569 34.9183C137.467 34.854 137.383 34.7708 137.319 34.6686C137.259 34.5627 137.228 34.4472 137.228 34.3224V30.6387H137.694V34.3224C137.694 34.3829 137.714 34.4359 137.756 34.4813C137.802 34.5229 137.854 34.5437 137.915 34.5437H138.471V35.0092H137.915Z" fill="#1E1E1E"/>
<path d="M147.015 35.0092C146.89 35.0092 146.775 34.9789 146.669 34.9183C146.566 34.854 146.483 34.7708 146.419 34.6686C146.358 34.5627 146.328 34.4472 146.328 34.3224V32.4039C146.328 32.279 146.358 32.1655 146.419 32.0633C146.483 31.9574 146.566 31.8741 146.669 31.8136C146.775 31.7493 146.89 31.7171 147.015 31.7171H149.671V32.1825H147.015C146.954 32.1825 146.901 32.2052 146.856 32.2506C146.814 32.2923 146.793 32.3434 146.793 32.4039V34.3224C146.793 34.3829 146.814 34.4359 146.856 34.4813C146.901 34.5229 146.954 34.5437 147.015 34.5437H149.683V35.0092H147.015Z" fill="#1E1E1E"/>
<path d="M153.89 35.0092C153.765 35.0092 153.65 34.9789 153.544 34.9183C153.442 34.854 153.359 34.7708 153.294 34.6686C153.234 34.5627 153.203 34.4472 153.203 34.3224V33.1304H156.087V32.4039C156.087 32.3434 156.064 32.2923 156.019 32.2506C155.977 32.2052 155.926 32.1825 155.865 32.1825H153.203V31.7171H155.865C155.994 31.7171 156.109 31.7493 156.212 31.8136C156.318 31.8741 156.401 31.9574 156.461 32.0633C156.526 32.1655 156.558 32.279 156.558 32.4039V35.0092H153.89ZM153.89 34.5437H156.087V33.5958H153.669V34.3224C153.669 34.3829 153.69 34.4359 153.731 34.4813C153.777 34.5229 153.83 34.5437 153.89 34.5437Z" fill="#1E1E1E"/>
<path d="M160.04 35.0092V32.4039C160.04 32.279 160.07 32.1655 160.131 32.0633C160.195 31.9574 160.278 31.8741 160.38 31.8136C160.486 31.7493 160.602 31.7171 160.727 31.7171H162.577V32.1825H160.727C160.666 32.1825 160.613 32.2052 160.568 32.2506C160.526 32.2923 160.505 32.3434 160.505 32.4039V35.0092H160.04Z" fill="#1E1E1E"/>
<path d="M81 35.0092V30.9225H81.63L84.6269 34.487V30.9225H85.0867V35.0092H84.4567L81.4598 31.4447V35.0092H81Z" stroke="#1E1E1E"/>
<path d="M89.3041 35.0092C89.1792 35.0092 89.0638 34.9789 88.9579 34.9183C88.8557 34.854 88.7725 34.7708 88.7081 34.6686C88.6476 34.5627 88.6173 34.4472 88.6173 34.3224V32.4039C88.6173 32.279 88.6476 32.1655 88.7081 32.0633C88.7725 31.9574 88.8557 31.8741 88.9579 31.8136C89.0638 31.7493 89.1792 31.7171 89.3041 31.7171H91.2793C91.408 31.7171 91.5234 31.7493 91.6256 31.8136C91.7315 31.8741 91.8148 31.9574 91.8753 32.0633C91.9396 32.1655 91.9718 32.279 91.9718 32.4039V33.5958H89.0827V34.3224C89.0827 34.3829 89.1036 34.4359 89.1452 34.4813C89.1906 34.5229 89.2436 34.5437 89.3041 34.5437H91.9718V35.0092H89.3041ZM89.0827 33.1304H91.5007V32.4039C91.5007 32.3434 91.478 32.2923 91.4326 32.2506C91.391 32.2052 91.3399 32.1825 91.2793 32.1825H89.3041C89.2436 32.1825 89.1906 32.2052 89.1452 32.2506C89.1036 32.2923 89.0827 32.3434 89.0827 32.4039V33.1304Z" stroke="#1E1E1E"/>
<path d="M95.3478 35.0092V35.0035L96.7213 33.3348L95.3478 31.7228V31.7171H95.9608L97.0278 32.9658L98.1006 31.7171H98.7079V31.7228L97.3343 33.3348L98.7136 35.0035V35.0092H98.1006L97.0278 33.6923L95.9608 35.0092H95.3478Z" stroke="#1E1E1E"/>
<path d="M102.927 35.0092C102.799 35.0092 102.681 34.9789 102.575 34.9183C102.473 34.854 102.392 34.7708 102.331 34.6686C102.271 34.5627 102.241 34.4472 102.241 34.3224V30.6387H102.706V31.7171H104.131V32.1825H102.706V34.3224C102.706 34.3829 102.727 34.4359 102.768 34.4813C102.814 34.5229 102.867 34.5437 102.927 34.5437H104.131V35.0092H102.927Z" stroke="#1E1E1E"/>
<path d="M112.642 35.0092C112.518 35.0092 112.402 34.9789 112.296 34.9183C112.194 34.854 112.111 34.7708 112.046 34.6686C111.986 34.5627 111.956 34.4472 111.956 34.3224V30.6387H112.421V34.3224C112.421 34.3829 112.442 34.4359 112.483 34.4813C112.529 34.5229 112.582 34.5437 112.642 34.5437H113.199V35.0092H112.642Z" stroke="#1E1E1E"/>
<path d="M117.189 35.0092C117.065 35.0092 116.949 34.9789 116.843 34.9183C116.741 34.854 116.658 34.7708 116.593 34.6686C116.533 34.5627 116.503 34.4472 116.503 34.3224V32.4039C116.503 32.279 116.533 32.1655 116.593 32.0633C116.658 31.9574 116.741 31.8741 116.843 31.8136C116.949 31.7493 117.065 31.7171 117.189 31.7171H119.165C119.293 31.7171 119.409 31.7493 119.511 31.8136C119.617 31.8741 119.7 31.9574 119.761 32.0633C119.825 32.1655 119.857 32.279 119.857 32.4039V33.5958H116.968V34.3224C116.968 34.3829 116.989 34.4359 117.031 34.4813C117.076 34.5229 117.129 34.5437 117.189 34.5437H119.857V35.0092H117.189ZM116.968 33.1304H119.386V32.4039C119.386 32.3434 119.363 32.2923 119.318 32.2506C119.276 32.2052 119.225 32.1825 119.165 32.1825H117.189C117.129 32.1825 117.076 32.2052 117.031 32.2506C116.989 32.2923 116.968 32.3434 116.968 32.4039V33.1304Z" stroke="#1E1E1E"/>
<path d="M124.891 35.0092L123.075 31.7171H123.619L125.163 34.5551L126.707 31.7171H127.252L125.43 35.0092H124.891Z" stroke="#1E1E1E"/>
<path d="M131.167 35.0092C131.042 35.0092 130.927 34.9789 130.821 34.9183C130.719 34.854 130.636 34.7708 130.571 34.6686C130.511 34.5627 130.48 34.4472 130.48 34.3224V32.4039C130.48 32.279 130.511 32.1655 130.571 32.0633C130.636 31.9574 130.719 31.8741 130.821 31.8136C130.927 31.7493 131.042 31.7171 131.167 31.7171H133.142C133.271 31.7171 133.386 31.7493 133.489 31.8136C133.595 31.8741 133.678 31.9574 133.738 32.0633C133.803 32.1655 133.835 32.279 133.835 32.4039V33.5958H130.946V34.3224C130.946 34.3829 130.967 34.4359 131.008 34.4813C131.054 34.5229 131.107 34.5437 131.167 34.5437H133.835V35.0092H131.167ZM130.946 33.1304H133.364V32.4039C133.364 32.3434 133.341 32.2923 133.296 32.2506C133.254 32.2052 133.203 32.1825 133.142 32.1825H131.167C131.107 32.1825 131.054 32.2052 131.008 32.2506C130.967 32.2923 130.946 32.3434 130.946 32.4039V33.1304Z" stroke="#1E1E1E"/>
<path d="M137.915 35.0092C137.79 35.0092 137.675 34.9789 137.569 34.9183C137.467 34.854 137.383 34.7708 137.319 34.6686C137.259 34.5627 137.228 34.4472 137.228 34.3224V30.6387H137.694V34.3224C137.694 34.3829 137.714 34.4359 137.756 34.4813C137.802 34.5229 137.854 34.5437 137.915 34.5437H138.471V35.0092H137.915Z" stroke="#1E1E1E"/>
<path d="M147.015 35.0092C146.89 35.0092 146.775 34.9789 146.669 34.9183C146.566 34.854 146.483 34.7708 146.419 34.6686C146.358 34.5627 146.328 34.4472 146.328 34.3224V32.4039C146.328 32.279 146.358 32.1655 146.419 32.0633C146.483 31.9574 146.566 31.8741 146.669 31.8136C146.775 31.7493 146.89 31.7171 147.015 31.7171H149.671V32.1825H147.015C146.954 32.1825 146.901 32.2052 146.856 32.2506C146.814 32.2923 146.793 32.3434 146.793 32.4039V34.3224C146.793 34.3829 146.814 34.4359 146.856 34.4813C146.901 34.5229 146.954 34.5437 147.015 34.5437H149.683V35.0092H147.015Z" stroke="#1E1E1E"/>
<path d="M153.89 35.0092C153.765 35.0092 153.65 34.9789 153.544 34.9183C153.442 34.854 153.359 34.7708 153.294 34.6686C153.234 34.5627 153.203 34.4472 153.203 34.3224V33.1304H156.087V32.4039C156.087 32.3434 156.064 32.2923 156.019 32.2506C155.977 32.2052 155.926 32.1825 155.865 32.1825H153.203V31.7171H155.865C155.994 31.7171 156.109 31.7493 156.212 31.8136C156.318 31.8741 156.401 31.9574 156.461 32.0633C156.526 32.1655 156.558 32.279 156.558 32.4039V35.0092H153.89ZM153.89 34.5437H156.087V33.5958H153.669V34.3224C153.669 34.3829 153.69 34.4359 153.731 34.4813C153.777 34.5229 153.83 34.5437 153.89 34.5437Z" stroke="#1E1E1E"/>
<path d="M160.04 35.0092V32.4039C160.04 32.279 160.07 32.1655 160.131 32.0633C160.195 31.9574 160.278 31.8741 160.38 31.8136C160.486 31.7493 160.602 31.7171 160.727 31.7171H162.577V32.1825H160.727C160.666 32.1825 160.613 32.2052 160.568 32.2506C160.526 32.2923 160.505 32.3434 160.505 32.4039V35.0092H160.04Z" stroke="#1E1E1E"/>
<path d="M82.2207 24.3672V24.6172H82.4707H86.6851H86.9351V24.3672V8.22747L100.638 24.5281L100.712 24.6172H100.829H105.458H105.708V24.3672V1.37958V1.12958H105.458H101.212H100.962V1.37958V17.4872L87.2916 1.21875L87.2166 1.12958H87.1002H82.4707H82.2207V1.37958V24.3672ZM111.212 24.3672V24.6172H111.462H134.449H134.699V24.3672V20.1209V19.8709H134.449H115.926V1.34766V1.09766H115.676H111.462H111.212V1.34766V24.3672ZM140.777 23.9738L140.78 23.9756C141.501 24.4034 142.29 24.6172 143.143 24.6172H161.629H161.879V24.3672V20.1209V19.8709H161.629H144.037C143.752 19.8709 143.541 19.7937 143.384 19.6565C143.247 19.499 143.169 19.2886 143.169 19.0034V6.74336C143.169 6.42854 143.251 6.22539 143.379 6.0946C143.537 5.95472 143.749 5.87591 144.037 5.87591H161.629H161.879V5.62591V1.37958V1.12958H161.629H143.143C142.29 1.12958 141.501 1.34339 140.78 1.77124L140.78 1.77122L140.777 1.77305C140.083 2.19889 139.522 2.77082 139.098 3.48528C138.669 4.18587 138.455 4.96529 138.455 5.81747V19.9293C138.455 20.7821 138.669 21.5713 139.097 22.2919L139.099 22.2949C139.524 22.9883 140.084 23.5487 140.777 23.9738Z" fill="#1E1E1E" stroke="#1E1E1E" stroke-width="0.5"/>
<defs>
<linearGradient id="paint0_linear_453_748" x1="27.3341" y1="13.4885" x2="13.1166" y2="34.945" gradientUnits="userSpaceOnUse">
<stop stop-color="#EB3238"/>
<stop offset="1" stop-color="#EB3238" stop-opacity="0"/>
</linearGradient>
<linearGradient id="paint1_linear_453_748" x1="46.5315" y1="8.75854" x2="39.5573" y2="35.0794" gradientUnits="userSpaceOnUse">
<stop stop-color="#3E4096"/>
<stop offset="0.495818" stop-color="#3E4096" stop-opacity="0.610731"/>
<stop offset="1" stop-color="#3E4096" stop-opacity="0"/>
</linearGradient>
<linearGradient id="paint2_linear_453_748" x1="60.4306" y1="9.94103" x2="43.3738" y2="34.2208" gradientUnits="userSpaceOnUse">
<stop stop-color="#00B0EF"/>
<stop offset="1" stop-color="#00B0EF" stop-opacity="0"/>
</linearGradient>
</defs>
</svg>
