<svg width="151" height="27" viewBox="0 0 151 27" fill="none" xmlns="http://www.w3.org/2000/svg">
<path d="M27.0423 0.0717773C18.7637 0.0717777 12.6637 22.2205 0.318359 26.7081H9.61366H10.1946C19.7804 26.7081 29.9471 0.0717774 36.0472 0.0717773H27.0423Z" fill="url(#paint0_linear_871_2385)"/>
<path d="M39.0955 0.0717773C30.6933 0.0717777 24.5022 22.2205 11.9727 26.7081H21.4067H21.9963C31.7252 26.7081 42.0436 0.0717774 48.2347 0.0717773H39.0955Z" fill="url(#paint1_linear_871_2385)"/>
<path d="M50.9037 0.0717773C42.625 0.0717777 36.525 22.2205 24.1797 26.7081H33.475H34.0559C43.6417 26.7081 53.8084 0.0717774 59.9085 0.0717773H50.9037Z" fill="url(#paint2_linear_871_2385)"/>
<path d="M62.0723 25.4074V0.106916H67.2583L83.0667 18.5903V0.106916H87.8235V25.4074H82.6375L66.7933 6.88886V25.4074H62.0723Z" fill="white"/>
<path d="M94.5486 25.4074V0.0717773H99.2696V20.7339H120.3V25.4074H94.5486Z" fill="white"/>
<path d="M130.039 25.4074C129.133 25.4074 128.298 25.1849 127.535 24.7398C126.796 24.2947 126.2 23.709 125.747 22.9828C125.294 22.2331 125.067 21.4132 125.067 20.523V4.99132C125.067 4.10112 125.294 3.29291 125.747 2.56669C126.2 1.81704 126.796 1.21967 127.535 0.774568C128.298 0.329467 129.133 0.106916 130.039 0.106916H150.747V4.78048H131.04C130.659 4.78048 130.349 4.8859 130.11 5.09674C129.896 5.30758 129.788 5.61212 129.788 6.01037V19.504C129.788 19.8788 129.896 20.1833 130.11 20.4176C130.349 20.6284 130.659 20.7339 131.04 20.7339H150.747V25.4074H130.039Z" fill="white"/>
<defs>
<linearGradient id="paint0_linear_871_2385" x1="21.4851" y1="9.87544" x2="10.3651" y2="26.6574" gradientUnits="userSpaceOnUse">
<stop stop-color="#EB3238"/>
<stop offset="1" stop-color="#EB3238" stop-opacity="0"/>
</linearGradient>
<linearGradient id="paint1_linear_871_2385" x1="36.5003" y1="6.17594" x2="31.0455" y2="26.7626" gradientUnits="userSpaceOnUse">
<stop stop-color="#3E4096"/>
<stop offset="0.495818" stop-color="#3E4096" stop-opacity="0.610731"/>
<stop offset="1" stop-color="#3E4096" stop-opacity="0"/>
</linearGradient>
<linearGradient id="paint2_linear_871_2385" x1="47.3711" y1="7.10082" x2="34.0304" y2="26.091" gradientUnits="userSpaceOnUse">
<stop stop-color="#00B0EF"/>
<stop offset="1" stop-color="#00B0EF" stop-opacity="0"/>
</linearGradient>
</defs>
</svg>
