<svg width="178" height="178" viewBox="0 0 178 178" fill="none" xmlns="http://www.w3.org/2000/svg">
<path d="M154.181 108.517L165.236 112.713L164.254 115.301C163.743 116.647 163.236 117.396 162.549 117.854C161.847 118.306 160.902 118.358 159.945 117.995C158.853 117.581 158.277 116.934 158.122 115.9C157.095 116.982 156.057 117.238 154.695 116.722C153.559 116.29 152.762 115.457 152.579 114.498C152.427 113.636 152.58 112.736 153.142 111.255L154.181 108.517ZM154.763 110.005L154.19 111.515C153.764 112.637 153.6 113.431 153.685 114.062C153.756 114.688 154.298 115.287 155.061 115.577C156.049 115.952 156.963 115.751 157.518 115.055C157.855 114.618 158.125 114.087 158.557 112.95L159.056 111.634L154.763 110.005ZM160.059 112.014L159.548 113.361C159.167 114.363 159.06 114.87 159.094 115.413C159.138 116.063 159.593 116.578 160.356 116.868C161.014 117.117 161.694 117.084 162.096 116.792C162.539 116.481 162.877 115.907 163.308 114.771L163.813 113.439L160.059 112.014Z" fill="black"/>
<path d="M153.339 130.685L145.803 126.233L146.406 125.214L147.728 125.995C147.126 124.562 147.179 123.496 147.935 122.215C149.311 119.887 151.995 119.15 154.254 120.485C156.513 121.819 157.212 124.537 155.878 126.796C155.105 128.104 154.113 128.745 152.605 128.876L153.941 129.666L153.339 130.685ZM154.949 126.229C155.901 124.617 155.338 122.519 153.685 121.542C151.991 120.541 149.865 121.088 148.88 122.755C147.912 124.394 148.486 126.443 150.194 127.452C151.902 128.461 153.94 127.937 154.949 126.229Z" fill="black"/>
<path d="M136.951 137.081L144.171 129.028L150.688 134.87L149.898 135.752L144.179 130.625L141.755 133.329L147.473 138.456L146.683 139.338L140.964 134.211L138.54 136.915L144.258 142.042L143.468 142.923L136.951 137.081Z" fill="black"/>
<path d="M132.446 152.048L127.195 145.046L128.142 144.336L129.063 145.564C129.057 144.009 129.515 143.046 130.705 142.153C132.868 140.531 135.63 140.88 137.204 142.979C138.779 145.078 138.382 147.856 136.283 149.43C135.067 150.342 133.905 150.553 132.462 150.096L133.393 151.337L132.446 152.048ZM135.643 148.55C137.14 147.427 137.425 145.273 136.273 143.737C135.092 142.163 132.919 141.852 131.371 143.014C129.847 144.156 129.591 146.268 130.782 147.856C131.972 149.443 134.055 149.74 135.643 148.55Z" fill="black"/>
<path d="M121.088 153.274L119.882 150.536L117.817 151.446C116.617 151.975 115.848 152.769 116.299 153.794C116.751 154.818 117.823 154.713 119.024 154.184L121.088 153.274ZM117.16 157.611C116.779 156.747 117.207 155.894 117.54 155.537C116.332 155.615 115.575 155.127 115.201 154.277C114.601 152.916 115.35 151.362 117.107 150.588L120.533 149.078L124.062 157.087L120.856 158.5C119.157 159.248 117.753 158.958 117.16 157.611ZM118.199 157.153C118.567 157.987 119.487 157.932 120.599 157.441L122.547 156.583L121.521 154.255L119.573 155.113C118.461 155.604 117.831 156.318 118.199 157.153Z" fill="black"/>
<path d="M111.392 157.392L110.626 154.384L108.579 154.905C107.184 155.261 106.667 155.954 106.916 156.931C107.165 157.907 107.95 158.269 109.346 157.913L111.392 157.392ZM109.316 159.027C107.533 159.481 106.124 158.684 105.753 157.227C105.382 155.769 106.237 154.396 108.02 153.941L111.509 153.053L113.669 161.534L112.522 161.826L111.657 158.431L109.316 159.027ZM105.095 163.718L102.935 155.237L104.082 154.945L106.243 163.426L105.095 163.718Z" fill="black"/>
<path d="M95.9202 165.012L95.8006 163.947L99.076 163.579L98.2193 155.947L99.3959 155.815L100.372 164.513L95.9202 165.012Z" fill="black"/>
<path d="M88.2107 165.461C85.6359 165.381 83.7776 163.355 83.8591 160.716C83.9401 158.094 85.8869 156.217 88.4617 156.296C91.1324 156.379 93.0712 158.392 92.9902 161.014C92.9082 163.669 90.8974 165.544 88.2107 165.461ZM88.3402 164.376C90.2593 164.436 91.729 162.976 91.7913 160.961C91.853 158.962 90.4432 157.446 88.4601 157.385C86.541 157.326 85.1212 158.722 85.059 160.737C84.9953 162.8 86.3572 164.315 88.3402 164.376Z" fill="black"/>
<path d="M72.6198 154.44L80.1289 156.051L80.9742 154.171L81.7721 154.342L81.1242 157.361L80.0135 157.123L75.1951 163.944L73.881 163.662L72.2854 155.465L71.1747 155.226L71.8226 152.207L72.6204 152.378L72.6198 154.44ZM73.5056 155.726L74.8201 162.489L78.7932 156.861L73.5056 155.726Z" fill="black"/>
<path d="M57.18 158.181L60.5291 150.095L61.6229 150.548L61.0352 151.967C62.3701 151.169 63.4321 151.072 64.8068 151.641C67.305 152.676 68.412 155.23 67.4079 157.654C66.4038 160.079 63.8116 161.153 61.3873 160.148C59.983 159.567 59.2094 158.675 58.8678 157.2L58.2739 158.634L57.18 158.181ZM61.8184 159.149C63.5479 159.866 65.5461 159.013 66.2808 157.24C67.0339 155.421 66.1939 153.394 64.4053 152.653C62.6462 151.924 60.6984 152.78 59.9392 154.613C59.1801 156.446 59.9854 158.39 61.8184 159.149Z" fill="black"/>
<path d="M51.3531 150.445L47.7736 147.998L48.3424 147.166L51.9219 149.613L51.3531 150.445Z" fill="black"/>
<path d="M44.7262 139.734L36.3049 148.034L34.3619 146.062C33.3511 145.037 32.8815 144.264 32.7516 143.448C32.6332 142.622 32.979 141.742 33.7083 141.023C34.5402 140.203 35.368 139.949 36.3728 140.239C35.8172 138.854 36.0172 137.804 37.0542 136.782C37.9202 135.928 39.0091 135.551 39.9578 135.785C40.8047 136.006 41.559 136.52 42.6709 137.648L44.7262 139.734ZM43.1316 139.643L41.9973 138.492C41.1549 137.637 40.5022 137.157 39.8926 136.972C39.2944 136.775 38.5233 137.019 37.9421 137.591C37.19 138.333 36.991 139.248 37.3925 140.043C37.6492 140.531 38.0192 140.997 38.8727 141.864L39.8611 142.866L43.1316 139.643ZM39.0976 143.619L38.0868 142.593C37.3343 141.83 36.9179 141.521 36.4102 141.325C35.8009 141.095 35.1432 141.293 34.5621 141.866C34.0607 142.36 33.8072 142.992 33.9054 143.479C34.0034 144.012 34.3841 144.558 35.2377 145.424L36.2373 146.438L39.0976 143.619Z" fill="black"/>
<path d="M24.9256 129.693L32.1144 124.701L32.7897 125.673L31.5281 126.549C33.0825 126.6 34.0283 127.092 34.877 128.314C36.4193 130.535 35.9699 133.282 33.8146 134.779C31.6592 136.276 28.898 135.778 27.4013 133.622C26.5344 132.374 26.3657 131.205 26.8758 129.78L25.601 130.665L24.9256 129.693ZM28.3041 133.015C29.3719 134.553 31.5136 134.916 33.0907 133.821C34.7072 132.698 35.0967 130.538 33.9925 128.948C32.9065 127.384 30.8053 127.051 29.1756 128.183C27.546 129.314 27.1725 131.385 28.3041 133.015Z" fill="black"/>
<path d="M25.9731 112.14L30.2608 122.07L22.2258 125.539L21.7564 124.452L28.8072 121.408L27.3674 118.073L20.3167 121.118L19.8473 120.031L26.8981 116.986L25.4583 113.652L18.4075 116.696L17.9382 115.609L25.9731 112.14Z" fill="black"/>
<path d="M14.3159 101.929L22.8731 100.093L23.1215 101.251L21.6197 101.573C23.0346 102.218 23.7177 103.037 24.0299 104.492C24.5972 107.136 23.1239 109.498 20.5583 110.048C17.9927 110.599 15.6366 109.075 15.0861 106.51C14.7672 105.023 15.0618 103.88 16.0818 102.761L14.5643 103.087L14.3159 101.929ZM16.1532 106.297C16.546 108.127 18.3824 109.288 20.2596 108.885C22.1838 108.472 23.3756 106.629 22.9694 104.736C22.57 102.875 20.7593 101.758 18.8195 102.174C16.8796 102.59 15.7369 104.357 16.1532 106.297Z" fill="black"/>
<path d="M17.9471 90.6876L20.9383 90.7569L20.9905 88.5015C21.0209 87.1898 20.6287 86.1565 19.509 86.1305C18.3893 86.1046 18.0297 87.1205 17.9993 88.4322L17.9471 90.6876ZM15.6875 85.2898C16.6312 85.3117 17.222 86.0616 17.4036 86.5139C17.8458 85.3878 18.609 84.9094 19.5368 84.9309C21.0244 84.9653 22.1137 86.3029 22.0693 88.2224L21.9826 91.9654L13.2329 91.7627L13.314 88.2597C13.357 86.4041 14.2158 85.2557 15.6875 85.2898ZM15.6611 86.4255C14.7494 86.4044 14.4095 87.2608 14.3813 88.4764L14.332 90.6039L16.8753 90.6628L16.9246 88.5353C16.9528 87.3197 16.5729 86.4466 15.6611 86.4255Z" fill="black"/>
<path d="M18.2842 80.3185L21.3354 80.8884L21.7232 78.8123C21.9876 77.3968 21.5762 76.6363 20.5854 76.4512C19.5945 76.2662 18.9364 76.8268 18.672 78.2424L18.2842 80.3185ZM17.674 77.7467C18.0118 75.938 19.3273 74.9955 20.8057 75.2716C22.2841 75.5478 23.1706 76.9015 22.8328 78.7103L22.1718 82.2491L13.5686 80.6422L13.786 79.4783L17.2304 80.1216L17.674 77.7467ZM15.1931 71.9446L23.7963 73.5515L23.579 74.7153L14.9757 73.1085L15.1931 71.9446Z" fill="black"/>
<path d="M17.8613 63.0761L18.8771 63.4186L17.8243 66.5419L25.102 68.9951L24.7238 70.1171L16.4303 67.3214L17.8613 63.0761Z" fill="black"/>
<path d="M20.6325 56.0025C21.7925 53.7024 24.4142 52.8743 26.7714 54.0631C29.1143 55.2447 29.9927 57.8022 28.8328 60.1023C27.6295 62.488 24.986 63.3948 22.6431 62.2132C20.2717 61.0172 19.422 58.4025 20.6325 56.0025ZM21.5607 56.5781C20.6961 58.2924 21.3977 60.2411 23.1978 61.149C24.9835 62.0496 26.9535 61.4124 27.8469 59.6409C28.7115 57.9266 28.0454 56.0496 26.2453 55.1418C24.4024 54.2123 22.4541 54.8066 21.5607 56.5781Z" fill="black"/>
<path d="M37.166 46.5322L32.5356 52.6594L33.8836 54.2195L33.3916 54.8705L30.928 53.0087L31.6129 52.1024L27.4632 44.8553L28.2736 43.783L36.3783 45.7965L37.0632 44.8902L39.5268 46.752L39.0348 47.403L37.166 46.5322ZM35.6258 46.7922L28.9407 45.1294L32.3653 51.1068L35.6258 46.7922Z" fill="black"/>
<path d="M40.1457 31.0168L46.082 37.4478L45.212 38.2508L44.1702 37.1222C44.3348 38.6687 43.9776 39.6734 42.8842 40.6827C40.8973 42.5168 38.1145 42.4508 36.3347 40.5227C34.5549 38.5946 34.667 35.791 36.5951 34.0112C37.712 32.9802 38.8461 32.6519 40.3284 32.9603L39.2757 31.8199L40.1457 31.0168ZM37.3213 34.8215C35.9458 36.0913 35.8816 38.2627 37.1839 39.6735C38.5188 41.1196 40.7119 41.2073 42.1345 39.8941C43.5335 38.6027 43.5733 36.4756 42.2276 35.0177C40.8819 33.5599 38.7792 33.4758 37.3213 34.8215Z" fill="black"/>
<path d="M49.5952 28.915L53.3121 26.6822L53.8312 27.5463L50.1142 29.7791L49.5952 28.915Z" fill="black"/>
<path d="M62.0327 27.342L58.0456 16.2105L60.6515 15.2771C62.0071 14.7915 62.9057 14.6906 63.7002 14.9159C64.5001 15.1563 65.153 15.8402 65.4983 16.8042C65.8921 17.9038 65.7745 18.7617 65.0886 19.5512C66.5782 19.6295 67.4474 20.2529 67.9383 21.6237C68.3484 22.7685 68.2321 23.9148 67.6215 24.6774C67.0646 25.3527 66.2804 25.8205 64.7892 26.3547L62.0327 27.342ZM62.7858 25.9335L64.3072 25.3886C65.4369 24.984 66.1469 24.5937 66.5716 24.1187C67.0017 23.6587 67.1053 22.8568 66.8302 22.0886C66.4741 21.0944 65.7277 20.529 64.8377 20.5589C64.2866 20.5863 63.7077 20.7256 62.5629 21.1357L61.2374 21.6105L62.7858 25.9335ZM60.8759 20.6012L62.2316 20.1157C63.2408 19.7542 63.6958 19.5062 64.0873 19.1281C64.5529 18.6724 64.6491 17.9921 64.3739 17.2239C64.1366 16.5611 63.6701 16.0654 63.1867 15.9496C62.6624 15.8145 62.0071 15.9302 60.8623 16.3403L59.5217 16.8204L60.8759 20.6012Z" fill="black"/>
<path d="M79.6822 13.5352L81.1572 22.162L79.9902 22.3615L79.7313 20.8475C79.0269 22.2341 78.18 22.8821 76.7133 23.1329C74.0479 23.5886 71.7503 22.0173 71.308 19.4309C70.8658 16.8444 72.487 14.5544 75.0735 14.1122C76.5718 13.856 77.7016 14.1985 78.7767 15.2645L78.5151 13.7347L79.6822 13.5352ZM75.2411 15.1873C73.3959 15.5028 72.1592 17.2888 72.4828 19.1813C72.8145 21.1212 74.6058 22.3894 76.5141 22.0631C78.3909 21.7422 79.583 19.9801 79.2486 18.0245C78.9142 16.0689 77.1967 14.8529 75.2411 15.1873Z" fill="black"/>
<path d="M95.0063 21.8581L84.1942 21.566L84.4307 12.8171L85.6142 12.8491L85.4068 20.5263L89.0374 20.6244L89.2449 12.9472L90.4285 12.9792L90.221 20.6564L93.8517 20.7546L94.0591 13.0774L95.2427 13.1093L95.0063 21.8581Z" fill="black"/>
<path d="M109.793 15.6574L107.827 24.1856L106.673 23.9196L107.018 22.4229C105.833 23.4304 104.802 23.7016 103.352 23.3673C100.717 22.7597 99.2034 20.4239 99.793 17.8669C100.383 15.31 102.762 13.8226 105.319 14.4122C106.8 14.7537 107.71 15.5055 108.291 16.9037L108.639 15.3914L109.793 15.6574ZM105.059 15.4687C103.234 15.0481 101.405 16.2189 100.973 18.0898C100.531 20.0075 101.695 21.8685 103.581 22.3035C105.436 22.7313 107.216 21.5654 107.662 19.6321C108.107 17.6988 106.992 15.9145 105.059 15.4687Z" fill="black"/>
<path d="M117.833 23.4409L116.515 26.1272L118.541 27.1206C119.719 27.6983 120.821 27.7758 121.314 26.7702C121.808 25.7646 121.036 25.012 119.858 24.4343L117.833 23.4409ZM123.68 23.6537C123.265 24.5012 122.336 24.723 121.849 24.6981C122.686 25.5718 122.8 26.4654 122.392 27.2986C121.736 28.6346 120.065 29.0624 118.342 28.2169L114.98 26.5683L118.834 18.7105L121.98 20.2535C123.646 21.0707 124.329 22.3321 123.68 23.6537ZM122.66 23.1534C123.062 22.3346 122.427 21.6668 121.336 21.1314L119.425 20.1943L118.305 22.4784L120.215 23.4155C121.307 23.9509 122.259 23.9723 122.66 23.1534Z" fill="black"/>
<path d="M127.428 28.2905L125.621 30.814L127.338 32.0438C128.508 32.8824 129.371 32.8315 129.958 32.012C130.545 31.1925 130.316 30.359 129.145 29.5204L127.428 28.2905ZM130.017 28.826C131.513 29.8974 131.81 31.4881 130.934 32.7108C130.058 33.9335 128.456 34.1638 126.961 33.0923L124.034 30.996L129.131 23.881L130.093 24.5705L128.053 27.4191L130.017 28.826ZM136.324 29.0334L131.227 36.1484L130.264 35.4589L135.361 28.3439L136.324 29.0334Z" fill="black"/>
<path d="M143.216 35.1788L142.478 35.9558L140.089 33.6852L134.798 39.2521L133.94 38.4365L139.969 32.0925L143.216 35.1788Z" fill="black"/>
<path d="M148.332 40.4984C149.937 42.5133 149.594 45.2413 147.529 46.8862C145.477 48.5211 142.786 48.2506 141.181 46.2358C139.516 44.1458 139.797 41.3653 141.849 39.7303C143.927 38.0755 146.657 38.396 148.332 40.4984ZM147.421 41.1013C146.225 39.5995 144.161 39.4228 142.584 40.6789C141.02 41.9251 140.776 43.981 142.012 45.5329C143.208 47.0346 145.192 47.2137 146.769 45.9575C148.383 44.6715 148.657 42.6531 147.421 41.1013Z" fill="black"/>
<path d="M150.035 59.472L146.4 52.7066L144.42 53.2802L144.033 52.5614L146.754 51.0999L147.291 52.1006L155.609 51.3552L156.245 52.5391L151.032 59.0633L151.57 60.064L148.85 61.5255L148.463 60.8067L150.035 59.472ZM150.441 57.964L154.743 52.5833L147.882 53.2L150.441 57.964Z" fill="black"/>
<path d="M162.865 68.6197L154.541 71.3214L154.175 70.1952L155.636 69.721C154.163 69.2236 153.4 68.4788 152.94 67.0635C152.106 64.4915 153.33 61.9916 155.826 61.1816C158.321 60.3716 160.821 61.6462 161.631 64.1421C162.1 65.5879 161.924 66.7553 161.024 67.9726L162.5 67.4935L162.865 68.6197ZM160.591 64.4627C160.013 62.6822 158.068 61.7155 156.242 62.3082C154.37 62.9157 153.373 64.871 153.97 66.7124C154.558 68.5234 156.473 69.4494 158.361 68.8369C160.248 68.2245 161.204 66.3498 160.591 64.4627Z" fill="black"/>
<path d="M161.373 82.8596L161.557 87.1917L160.55 87.2345L160.366 82.9024L161.373 82.8596Z" fill="black"/>
</svg>
