<svg width="117" height="37" viewBox="0 0 117 37" fill="none" xmlns="http://www.w3.org/2000/svg">
<path d="M69.9476 0C55.9858 3.6047 44.7345 24.4136 26.1978 34.3115C22.8545 36.0972 19.1052 37 15.3085 37H0C18.0562 30.4761 28.8879 13.0211 40.4742 4.40723C44.3386 1.53484 49.0523 0 53.8878 0H69.9476Z" fill="url(#paint0_linear_803_562)"/>
<path d="M93.4715 0C79.5098 3.6047 68.2585 24.4136 49.7217 34.3115C46.3785 36.0972 42.6292 37 38.8325 37H23.5273C41.5836 30.4761 52.4153 13.0211 64.0016 4.40723C67.8659 1.53484 72.5796 0 77.4118 0H93.4715Z" fill="url(#paint1_linear_803_562)"/>
<path d="M117.001 0C103.039 3.6047 91.7878 24.4136 73.251 34.3115C69.9078 36.0972 66.1585 37 62.3618 37H47.0566C65.1129 30.4761 75.9446 13.0211 87.5309 4.40723C91.3918 1.53484 96.1055 0 100.941 0H117.001Z" fill="url(#paint2_linear_803_562)"/>
<path d="M16.7773 32.3252V9.89783H21.3726L35.3818 26.2828V9.89783H39.598V32.3252H35.0028L20.9632 15.9101V32.3252H16.7773Z" fill="black"/>
<path d="M45.5566 32.3252V9.86438H49.7391V28.1788H68.3739V32.3219H45.5566V32.3252Z" fill="black"/>
<path d="M77.0034 32.3252C76.2015 32.3252 75.4604 32.1279 74.7836 31.7333C74.1272 31.3388 73.5993 30.8205 73.2 30.1751C72.7973 29.5097 72.5977 28.784 72.5977 27.9949V14.2281C72.5977 13.439 72.7973 12.7234 73.2 12.078C73.6027 11.4126 74.1305 10.8843 74.7836 10.4897C75.4604 10.0951 76.1981 9.89783 77.0034 9.89783H95.3541V14.0409H77.8934C77.555 14.0409 77.2809 14.1345 77.0711 14.3218C76.8816 14.509 76.7869 14.7799 76.7869 15.131V27.092C76.7869 27.4231 76.8816 27.6939 77.0711 27.9013C77.2809 28.0885 77.5584 28.1821 77.8934 28.1821H95.3541V32.3252H77.0034Z" fill="black"/>
<defs>
<linearGradient id="paint0_linear_803_562" x1="0" y1="18.4997" x2="69.9466" y2="18.4997" gradientUnits="userSpaceOnUse">
<stop stop-color="#E7353A"/>
<stop offset="1" stop-color="#E7353A"/>
</linearGradient>
<linearGradient id="paint1_linear_803_562" x1="23.5258" y1="18.4997" x2="93.4724" y2="18.4997" gradientUnits="userSpaceOnUse">
<stop stop-color="#3F4194"/>
<stop offset="0.4958" stop-color="#3F4194"/>
<stop offset="1" stop-color="#3F4194"/>
</linearGradient>
<linearGradient id="paint2_linear_803_562" x1="47.0536" y1="18.4997" x2="117" y2="18.4997" gradientUnits="userSpaceOnUse">
<stop stop-color="#29AEE4"/>
<stop offset="1" stop-color="#29AEE4"/>
</linearGradient>
</defs>
</svg>
