<svg width="160" height="35" viewBox="0 0 160 35" fill="none" xmlns="http://www.w3.org/2000/svg">
<path d="M33.9671 0.730103C23.4447 0.730103 15.6913 28.8819 0 34.5858H11.8146H12.5531C24.7369 34.5858 37.6592 0.730103 45.4125 0.730103H33.9671Z" fill="url(#paint0_linear_453_609)"/>
<path d="M49.2866 0.730103C38.6071 0.730103 30.738 28.8819 14.8125 34.5858H26.8035H27.5529C39.9186 34.5858 53.0337 0.730103 60.9028 0.730103H49.2866Z" fill="url(#paint1_linear_453_609)"/>
<path d="M64.2972 0.730103C53.7747 0.730103 46.0214 28.8819 30.3301 34.5858H42.1447H42.8831C55.067 34.5858 67.9892 0.730103 75.7426 0.730103H64.2972Z" fill="url(#paint2_linear_453_609)"/>
<path d="M77.9023 34.5859V30.5232H78.5287L81.508 34.0668V30.5232H81.965V34.5859H81.3387L78.3594 31.0423V34.5859H77.9023Z" fill="white"/>
<path d="M86.1577 34.5859C86.0335 34.5859 85.9188 34.5558 85.8135 34.4956C85.7119 34.4316 85.6291 34.3489 85.5652 34.2473C85.505 34.142 85.4749 34.0273 85.4749 33.9031V31.9959C85.4749 31.8718 85.505 31.7589 85.5652 31.6574C85.6291 31.552 85.7119 31.4693 85.8135 31.4091C85.9188 31.3451 86.0335 31.3132 86.1577 31.3132H88.1213C88.2492 31.3132 88.3639 31.3451 88.4655 31.4091C88.5708 31.4693 88.6536 31.552 88.7138 31.6574C88.7777 31.7589 88.8097 31.8718 88.8097 31.9959V33.1809H85.9376V33.9031C85.9376 33.9633 85.9583 34.016 85.9997 34.0611C86.0448 34.1025 86.0975 34.1232 86.1577 34.1232H88.8097V34.5859H86.1577ZM85.9376 32.7182H88.3414V31.9959C88.3414 31.9357 88.3188 31.8849 88.2737 31.8436C88.2323 31.7984 88.1815 31.7759 88.1213 31.7759H86.1577C86.0975 31.7759 86.0448 31.7984 85.9997 31.8436C85.9583 31.8849 85.9376 31.9357 85.9376 31.9959V32.7182Z" fill="white"/>
<path d="M92.1658 34.5859V34.5802L93.5313 32.9213L92.1658 31.3188V31.3132H92.7752L93.836 32.5545L94.9025 31.3132H95.5063V31.3188L94.1407 32.9213L95.5119 34.5802V34.5859H94.9025L93.836 33.2768L92.7752 34.5859H92.1658Z" fill="white"/>
<path d="M99.7009 34.5859C99.573 34.5859 99.4564 34.5558 99.351 34.4956C99.2495 34.4316 99.1686 34.3489 99.1084 34.2473C99.0482 34.142 99.0181 34.0273 99.0181 33.9031V30.2411H99.4808V31.3132H100.897V31.7759H99.4808V33.9031C99.4808 33.9633 99.5015 34.016 99.5429 34.0611C99.588 34.1025 99.6407 34.1232 99.7009 34.1232H100.897V34.5859H99.7009Z" fill="white"/>
<path d="M109.359 34.5859C109.235 34.5859 109.12 34.5558 109.015 34.4956C108.913 34.4316 108.83 34.3489 108.766 34.2473C108.706 34.142 108.676 34.0273 108.676 33.9031V30.2411H109.139V33.9031C109.139 33.9633 109.16 34.016 109.201 34.0611C109.246 34.1025 109.299 34.1232 109.359 34.1232H109.912V34.5859H109.359Z" fill="white"/>
<path d="M113.879 34.5859C113.755 34.5859 113.64 34.5558 113.535 34.4956C113.433 34.4316 113.351 34.3489 113.287 34.2473C113.227 34.142 113.196 34.0273 113.196 33.9031V31.9959C113.196 31.8718 113.227 31.7589 113.287 31.6574C113.351 31.552 113.433 31.4693 113.535 31.4091C113.64 31.3451 113.755 31.3132 113.879 31.3132H115.843C115.971 31.3132 116.086 31.3451 116.187 31.4091C116.292 31.4693 116.375 31.552 116.435 31.6574C116.499 31.7589 116.531 31.8718 116.531 31.9959V33.1809H113.659V33.9031C113.659 33.9633 113.68 34.016 113.721 34.0611C113.766 34.1025 113.819 34.1232 113.879 34.1232H116.531V34.5859H113.879ZM113.659 32.7182H116.063V31.9959C116.063 31.9357 116.04 31.8849 115.995 31.8436C115.954 31.7984 115.903 31.7759 115.843 31.7759H113.879C113.819 31.7759 113.766 31.7984 113.721 31.8436C113.68 31.8849 113.659 31.9357 113.659 31.9959V32.7182Z" fill="white"/>
<path d="M121.535 34.5859L119.73 31.3132H120.271L121.806 34.1345L123.341 31.3132H123.883L122.071 34.5859H121.535Z" fill="white"/>
<path d="M127.775 34.5859C127.651 34.5859 127.536 34.5558 127.431 34.4956C127.329 34.4316 127.246 34.3489 127.182 34.2473C127.122 34.142 127.092 34.0273 127.092 33.9031V31.9959C127.092 31.8718 127.122 31.7589 127.182 31.6574C127.246 31.552 127.329 31.4693 127.431 31.4091C127.536 31.3451 127.651 31.3132 127.775 31.3132H129.738C129.866 31.3132 129.981 31.3451 130.083 31.4091C130.188 31.4693 130.271 31.552 130.331 31.6574C130.395 31.7589 130.427 31.8718 130.427 31.9959V33.1809H127.555V33.9031C127.555 33.9633 127.575 34.016 127.617 34.0611C127.662 34.1025 127.715 34.1232 127.775 34.1232H130.427V34.5859H127.775ZM127.555 32.7182H129.959V31.9959C129.959 31.9357 129.936 31.8849 129.891 31.8436C129.849 31.7984 129.799 31.7759 129.738 31.7759H127.775C127.715 31.7759 127.662 31.7984 127.617 31.8436C127.575 31.8849 127.555 31.9357 127.555 31.9959V32.7182Z" fill="white"/>
<path d="M134.483 34.5859C134.359 34.5859 134.244 34.5558 134.139 34.4956C134.037 34.4316 133.955 34.3489 133.891 34.2473C133.83 34.142 133.8 34.0273 133.8 33.9031V30.2411H134.263V33.9031C134.263 33.9633 134.284 34.016 134.325 34.0611C134.37 34.1025 134.423 34.1232 134.483 34.1232H135.036V34.5859H134.483Z" fill="currentColor"/>
<path d="M143.529 34.5859C143.405 34.5859 143.291 34.5558 143.185 34.4956C143.084 34.4316 143.001 34.3489 142.937 34.2473C142.877 34.142 142.847 34.0273 142.847 33.9031V31.9959C142.847 31.8718 142.877 31.7589 142.937 31.6574C143.001 31.552 143.084 31.4693 143.185 31.4091C143.291 31.3451 143.405 31.3132 143.529 31.3132H146.17V31.7759H143.529C143.469 31.7759 143.417 31.7984 143.371 31.8436C143.33 31.8849 143.309 31.9357 143.309 31.9959V33.9031C143.309 33.9633 143.33 34.016 143.371 34.0611C143.417 34.1025 143.469 34.1232 143.529 34.1232H146.181V34.5859H143.529Z" fill="white"/>
<path d="M150.364 34.5859C150.24 34.5859 150.126 34.5558 150.02 34.4956C149.919 34.4316 149.836 34.3489 149.772 34.2473C149.712 34.142 149.682 34.0273 149.682 33.9031V32.7182H152.548V31.9959C152.548 31.9357 152.526 31.8849 152.48 31.8436C152.439 31.7984 152.388 31.7759 152.328 31.7759H149.682V31.3132H152.328C152.456 31.3132 152.571 31.3451 152.672 31.4091C152.778 31.4693 152.86 31.552 152.921 31.6574C152.984 31.7589 153.016 31.8718 153.016 31.9959V34.5859H150.364ZM150.364 34.1232H152.548V33.1809H150.144V33.9031C150.144 33.9633 150.165 34.016 150.206 34.0611C150.252 34.1025 150.304 34.1232 150.364 34.1232Z" fill="currentColor"/>
<path d="M156.478 34.5859V31.9959C156.478 31.8718 156.508 31.7589 156.568 31.6574C156.632 31.552 156.715 31.4693 156.816 31.4091C156.922 31.3451 157.037 31.3132 157.161 31.3132H159V31.7759H157.161C157.101 31.7759 157.048 31.7984 157.003 31.8436C156.961 31.8849 156.941 31.9357 156.941 31.9959V34.5859H156.478Z" fill="currentColor"/>
<path d="M77.9023 34.5859V30.5232H78.5287L81.508 34.0668V30.5232H81.965V34.5859H81.3387L78.3594 31.0423V34.5859H77.9023Z" stroke="currentColor"/>
<path d="M86.1577 34.5859C86.0335 34.5859 85.9188 34.5558 85.8135 34.4956C85.7119 34.4316 85.6291 34.3489 85.5652 34.2473C85.505 34.142 85.4749 34.0273 85.4749 33.9031V31.9959C85.4749 31.8718 85.505 31.7589 85.5652 31.6574C85.6291 31.552 85.7119 31.4693 85.8135 31.4091C85.9188 31.3451 86.0335 31.3132 86.1577 31.3132H88.1213C88.2492 31.3132 88.3639 31.3451 88.4655 31.4091C88.5708 31.4693 88.6536 31.552 88.7138 31.6574C88.7777 31.7589 88.8097 31.8718 88.8097 31.9959V33.1809H85.9376V33.9031C85.9376 33.9633 85.9583 34.016 85.9997 34.0611C86.0448 34.1025 86.0975 34.1232 86.1577 34.1232H88.8097V34.5859H86.1577ZM85.9376 32.7182H88.3414V31.9959C88.3414 31.9357 88.3188 31.8849 88.2737 31.8436C88.2323 31.7984 88.1815 31.7759 88.1213 31.7759H86.1577C86.0975 31.7759 86.0448 31.7984 85.9997 31.8436C85.9583 31.8849 85.9376 31.9357 85.9376 31.9959V32.7182Z" stroke="currentColor"/>
<path d="M92.1658 34.5859V34.5802L93.5313 32.9213L92.1658 31.3188V31.3132H92.7752L93.836 32.5545L94.9025 31.3132H95.5063V31.3188L94.1407 32.9213L95.5119 34.5802V34.5859H94.9025L93.836 33.2768L92.7752 34.5859H92.1658Z" stroke="currentColor"/>
<path d="M99.7009 34.5859C99.573 34.5859 99.4564 34.5558 99.351 34.4956C99.2495 34.4316 99.1686 34.3489 99.1084 34.2473C99.0482 34.142 99.0181 34.0273 99.0181 33.9031V30.2411H99.4808V31.3132H100.897V31.7759H99.4808V33.9031C99.4808 33.9633 99.5015 34.016 99.5429 34.0611C99.588 34.1025 99.6407 34.1232 99.7009 34.1232H100.897V34.5859H99.7009Z" stroke="currentColor"/>
<path d="M109.359 34.5859C109.235 34.5859 109.12 34.5558 109.015 34.4956C108.913 34.4316 108.83 34.3489 108.766 34.2473C108.706 34.142 108.676 34.0273 108.676 33.9031V30.2411H109.139V33.9031C109.139 33.9633 109.16 34.016 109.201 34.0611C109.246 34.1025 109.299 34.1232 109.359 34.1232H109.912V34.5859H109.359Z" stroke="currentColor"/>
<path d="M113.879 34.5859C113.755 34.5859 113.64 34.5558 113.535 34.4956C113.433 34.4316 113.351 34.3489 113.287 34.2473C113.227 34.142 113.196 34.0273 113.196 33.9031V31.9959C113.196 31.8718 113.227 31.7589 113.287 31.6574C113.351 31.552 113.433 31.4693 113.535 31.4091C113.64 31.3451 113.755 31.3132 113.879 31.3132H115.843C115.971 31.3132 116.086 31.3451 116.187 31.4091C116.292 31.4693 116.375 31.552 116.435 31.6574C116.499 31.7589 116.531 31.8718 116.531 31.9959V33.1809H113.659V33.9031C113.659 33.9633 113.68 34.016 113.721 34.0611C113.766 34.1025 113.819 34.1232 113.879 34.1232H116.531V34.5859H113.879ZM113.659 32.7182H116.063V31.9959C116.063 31.9357 116.04 31.8849 115.995 31.8436C115.954 31.7984 115.903 31.7759 115.843 31.7759H113.879C113.819 31.7759 113.766 31.7984 113.721 31.8436C113.68 31.8849 113.659 31.9357 113.659 31.9959V32.7182Z" stroke="currentColor"/>
<path d="M121.535 34.5859L119.73 31.3132H120.271L121.806 34.1345L123.341 31.3132H123.883L122.071 34.5859H121.535Z" stroke="currentColor"/>
<path d="M127.775 34.5859C127.651 34.5859 127.536 34.5558 127.431 34.4956C127.329 34.4316 127.246 34.3489 127.182 34.2473C127.122 34.142 127.092 34.0273 127.092 33.9031V31.9959C127.092 31.8718 127.122 31.7589 127.182 31.6574C127.246 31.552 127.329 31.4693 127.431 31.4091C127.536 31.3451 127.651 31.3132 127.775 31.3132H129.738C129.866 31.3132 129.981 31.3451 130.083 31.4091C130.188 31.4693 130.271 31.552 130.331 31.6574C130.395 31.7589 130.427 31.8718 130.427 31.9959V33.1809H127.555V33.9031C127.555 33.9633 127.575 34.016 127.617 34.0611C127.662 34.1025 127.715 34.1232 127.775 34.1232H130.427V34.5859H127.775ZM127.555 32.7182H129.959V31.9959C129.959 31.9357 129.936 31.8849 129.891 31.8436C129.849 31.7984 129.799 31.7759 129.738 31.7759H127.775C127.715 31.7759 127.662 31.7984 127.617 31.8436C127.575 31.8849 127.555 31.9357 127.555 31.9959V32.7182Z" stroke="currentColor"/>
<path d="M134.483 34.5859C134.359 34.5859 134.244 34.5558 134.139 34.4956C134.037 34.4316 133.955 34.3489 133.891 34.2473C133.83 34.142 133.8 34.0273 133.8 33.9031V30.2411H134.263V33.9031C134.263 33.9633 134.284 34.016 134.325 34.0611C134.37 34.1025 134.423 34.1232 134.483 34.1232H135.036V34.5859H134.483Z" stroke="currentColor"/>
<path d="M143.529 34.5859C143.405 34.5859 143.291 34.5558 143.185 34.4956C143.084 34.4316 143.001 34.3489 142.937 34.2473C142.877 34.142 142.847 34.0273 142.847 33.9031V31.9959C142.847 31.8718 142.877 31.7589 142.937 31.6574C143.001 31.552 143.084 31.4693 143.185 31.4091C143.291 31.3451 143.405 31.3132 143.529 31.3132H146.17V31.7759H143.529C143.469 31.7759 143.417 31.7984 143.371 31.8436C143.33 31.8849 143.309 31.9357 143.309 31.9959V33.9031C143.309 33.9633 143.33 34.016 143.371 34.0611C143.417 34.1025 143.469 34.1232 143.529 34.1232H146.181V34.5859H143.529Z" stroke="currentColor"/>
<path d="M150.364 34.5859C150.24 34.5859 150.126 34.5558 150.02 34.4956C149.919 34.4316 149.836 34.3489 149.772 34.2473C149.712 34.142 149.682 34.0273 149.682 33.9031V32.7182H152.548V31.9959C152.548 31.9357 152.526 31.8849 152.48 31.8436C152.439 31.7984 152.388 31.7759 152.328 31.7759H149.682V31.3132H152.328C152.456 31.3132 152.571 31.3451 152.672 31.4091C152.778 31.4693 152.86 31.552 152.921 31.6574C152.984 31.7589 153.016 31.8718 153.016 31.9959V34.5859H150.364ZM150.364 34.1232H152.548V33.1809H150.144V33.9031C150.144 33.9633 150.165 34.016 150.206 34.0611C150.252 34.1025 150.304 34.1232 150.364 34.1232Z" stroke="currentColor"/>
<path d="M156.478 34.5859V31.9959C156.478 31.8718 156.508 31.7589 156.568 31.6574C156.632 31.552 156.715 31.4693 156.816 31.4091C156.922 31.3451 157.037 31.3132 157.161 31.3132H159V31.7759H157.161C157.101 31.7759 157.048 31.7984 157.003 31.8436C156.961 31.8849 156.941 31.9357 156.941 31.9959V34.5859H156.478Z" stroke="currentColor"/>
<path d="M78.8633 24.0056V24.5056H79.3633H83.5529H84.0529V24.0056V8.65058L97.2309 24.3273L97.3807 24.5056H97.6136H102.216H102.716V24.0056V1.15296V0.652955H102.216H97.9945H97.4945V1.15296V16.4758L84.3483 0.831291L84.1985 0.652955H83.9655H79.3633H78.8633V1.15296V24.0056ZM107.684 24.0056V24.5056H108.184H131.037H131.537V24.0056V19.7842V19.2842H131.037H112.874V1.12122V0.621216H112.374H108.184H107.684V1.12122V24.0056ZM137.196 23.8288L137.196 23.8288L137.202 23.8324C137.958 24.2813 138.787 24.5056 139.679 24.5056H158.057H158.557V24.0056V19.7842V19.2842H158.057H140.568C140.343 19.2842 140.199 19.2274 140.097 19.144C140.014 19.0421 139.957 18.8979 139.957 18.6733V6.48523C139.957 6.22346 140.022 6.09309 140.088 6.02238C140.19 5.93471 140.336 5.87434 140.568 5.87434H158.057H158.557V5.37434V1.15296V0.652955H158.057H139.679C138.787 0.652955 137.958 0.877174 137.202 1.32608L137.202 1.32604L137.196 1.32971C136.47 1.77466 135.885 2.37265 135.442 3.11659C134.991 3.854 134.767 4.6741 134.767 5.56478V19.5937C134.767 20.4857 134.992 21.3147 135.44 22.0708L135.44 22.0708L135.444 22.0768C135.887 22.8 136.473 23.3856 137.196 23.8288Z" fill="currentColor" stroke="currentColor"/>
<defs>
<linearGradient id="paint0_linear_453_609" x1="26.9037" y1="13.1909" x2="12.7697" y2="34.5213" gradientUnits="userSpaceOnUse">
<stop stop-color="#EB3238"/>
<stop offset="1" stop-color="#EB3238" stop-opacity="0"/>
</linearGradient>
<linearGradient id="paint1_linear_453_609" x1="45.988" y1="8.4887" x2="39.0547" y2="34.655" gradientUnits="userSpaceOnUse">
<stop stop-color="#3E4096"/>
<stop offset="0.495818" stop-color="#3E4096" stop-opacity="0.610731"/>
<stop offset="1" stop-color="#3E4096" stop-opacity="0"/>
</linearGradient>
<linearGradient id="paint2_linear_453_609" x1="59.8072" y1="9.66425" x2="42.8506" y2="33.8015" gradientUnits="userSpaceOnUse">
<stop stop-color="#00B0EF"/>
<stop offset="1" stop-color="#00B0EF" stop-opacity="0"/>
</linearGradient>
</defs>
</svg>
