<svg width="156" height="29" viewBox="0 0 156 29" fill="none" xmlns="http://www.w3.org/2000/svg">
<path d="M28.092 1C19.3896 1 12.9773 24.2825 0 28.9999H9.77114H10.3818C20.4583 28.9999 31.1455 1 37.5578 1H28.092Z" fill="url(#paint0_linear_836_695)"/>
<path d="M40.7613 1C31.929 1 25.421 24.2825 12.25 28.9999H22.167H22.7868C33.0137 28.9999 43.8604 1 50.3684 1H40.7613Z" fill="url(#paint1_linear_836_695)"/>
<path d="M53.174 1C44.4716 1 38.0593 24.2825 25.082 28.9999H34.8532H35.4639C45.5403 28.9999 56.2275 1 62.6398 1H53.174Z" fill="url(#paint2_linear_836_695)"/>
<path d="M69.75 26V26.25H70H74.5254H74.7754V26V8.41868L89.5207 26.1598L89.5957 26.25H89.713H94.6841H94.9341V26V1.03467V0.784674H94.6841H90.1244H89.8744V1.03467V18.5811L75.1634 0.874911L75.0884 0.784674H74.9711H70H69.75V1.03467V26ZM100.88 26V26.25H101.13H125.815H126.065V26V21.3883V21.1383H125.815H105.906V1V0.75H105.656H101.13H100.88V1V26ZM132.618 25.5537L132.621 25.5555C133.392 26.0185 134.237 26.25 135.15 26.25H155H155.25V26V21.3883V21.1383H155H136.11C135.8 21.1383 135.57 21.0533 135.397 20.9002C135.245 20.7245 135.16 20.49 135.16 20.1748V6.85992C135.16 6.51318 135.249 6.28592 135.392 6.1388C135.565 5.98295 135.797 5.89632 136.11 5.89632H155H155.25V5.64632V1.03467V0.784674H155H135.15C134.237 0.784674 133.392 1.01617 132.621 1.47916L132.621 1.47913L132.618 1.48099C131.875 1.94194 131.275 2.56081 130.821 3.33381C130.363 4.09102 130.134 4.9332 130.134 5.85437V21.1803C130.134 22.1021 130.363 22.955 130.82 23.7341L130.822 23.7371C131.277 24.4872 131.876 25.0936 132.618 25.5537Z" fill="white" stroke="white" stroke-width="0.5"/>
<defs>
<linearGradient id="paint0_linear_836_695" x1="22.2503" y1="11.3055" x2="10.561" y2="28.9466" gradientUnits="userSpaceOnUse">
<stop stop-color="#EB3238"/>
<stop offset="1" stop-color="#EB3238" stop-opacity="0"/>
</linearGradient>
<linearGradient id="paint1_linear_836_695" x1="38.0333" y1="7.41665" x2="32.2992" y2="29.0571" gradientUnits="userSpaceOnUse">
<stop stop-color="#3E4096"/>
<stop offset="0.495818" stop-color="#3E4096" stop-opacity="0.610731"/>
<stop offset="1" stop-color="#3E4096" stop-opacity="0"/>
</linearGradient>
<linearGradient id="paint2_linear_836_695" x1="49.4607" y1="8.38887" x2="35.437" y2="28.3512" gradientUnits="userSpaceOnUse">
<stop stop-color="#00B0EF"/>
<stop offset="1" stop-color="#00B0EF" stop-opacity="0"/>
</linearGradient>
</defs>
</svg>
